<svg
	xmlns="http://www.w3.org/2000/svg" viewBox="0 0 4000 4000">
	<defs>
		<style>.cls-1,.cls-2{fill:#ffcd98;}.cls-2{stroke:#333;stroke-miterlimit:10;stroke-width:5px;}.cls-3{fill:#fff;}.cls-4{fill:#7f6145;}.cls-5{opacity:0.2;}</style>
	</defs>
	<title>glasses</title>
	<g id="glasses">
		<path class="cls-1" d="M2091.3,1984.49c-30.62-9.25-62.92-14.52-91.57-14.27-24.08.21-52.43,3.74-80.53,10.39.4-.52.78-1,1.17-1.58,49-67,78.44-153,78.44-246.71,0-9.7-.33-19.25-1-28.72l12,0q-1,14.25-1,28.83c0,94.43,29.86,180.93,79.49,248.1Z"/>
		<path class="cls-2" d="M2705.81,1612.1c-25.77,30.7-61.74,1.58-94.1,1.64L1387,1610.18c-31.38.06-66.2,3.24-96.39,11.16-.63.16,2.14-6.95,1.51-6.78,82.9-226.79,271.46-410.75,439.45-410.75,172.41,0,245.31,116.94,268,116.74,19.15-.16,112.39-116.74,268-116.74C2435.23,1203.81,2622.52,1386.44,2705.81,1612.1Z"/>
		<path d="M1998.81,1732.32c0,93.76-29.49,179.72-78.44,246.71q-10.29,14.12-21.72,27.06c-32.22,36.38-70.24,69.74-113.14,89.37-39.57,18.12-83.36,23.94-128.71,23.94h-.14c-188.87,0-342-173.25-342-387.08q0-12,.67-23.73.79-14.16,2.51-28.09h677.81q1.41,11.49,2.19,23.1C1998.48,1713.07,1998.81,1722.62,1998.81,1732.32Z"/>
		<path class="cls-3" d="M1865.52,1974.62c-50.06,40.69-111.56,64.6-178,64.6-158.48,0-288.78-136.17-304.38-310.77,56.35,99.32,159.11,183.7,287.65,224.11C1737.73,1973.62,1804.14,1980.31,1865.52,1974.62Z"/>
		<path d="M2693,1732.38c0,106.91-38.36,203.68-100.16,273.76-61.95,69.92-147.35,113.31-241.85,113.31h-.14c-46.76,0-97-8.38-137.55-27.6-51-24.13-90.06-64.08-125-111.37-49.63-67.17-79.49-153.67-79.49-248.1q0-14.6,1-28.83.8-11.57,2.19-23h677.81q1.21,10,2,20.16C2692.58,1711.15,2693,1721.68,2693,1732.38Z"/>
		<path class="cls-3" d="M2559.7,1974.67c-50.06,40.7-111.57,64.6-178,64.6-158.47,0-288.78-136.17-304.38-310.77,56.35,99.32,159.11,183.7,287.66,224.12C2431.91,1973.68,2498.32,1980.36,2559.7,1974.67Z"/>
		<path d="M2982,1743l-1.62,24.62a17.62,17.62,0,0,1-16,17.58,17.42,17.42,0,0,1-6.83-.82l-218.51-69.06-44.15-13.95a19.29,19.29,0,0,0-5.68-.86l-679.45,3-12,0-649.95,2.87a268.36,268.36,0,0,0-78.3,12l-4,1.24-223.23,69.17a16.65,16.65,0,0,1-4.53.8,17.63,17.63,0,0,1-18.07-17.55l-1.76-24.61a16.68,16.68,0,0,1,0-1.87,17.78,17.78,0,0,1,13.31-16.18,18.1,18.1,0,0,0,2.77-1l200.69-92.56A368.91,368.91,0,0,1,1388.36,1602l1223.53-2.35a368.66,368.66,0,0,1,153.34,33.08L2965.88,1724a17.42,17.42,0,0,0,2.77,1,17.78,17.78,0,0,1,13.4,16.1A14.75,14.75,0,0,1,2982,1743Z"/>
		<path class="cls-4" d="M1781,2081c0,76.35,100,169,218.77,168,109.48-.95,216.23-92.55,216.23-167.78,0-60.53-125.95-113.77-216.23-113C1915.94,1969,1781,2009.38,1781,2081Z"/>
		<path class="cls-5" d="M2216,2081.21c0,75.23-106.76,166.83-216.23,167.78C1881,2250,1781,2157.35,1781,2081a55.51,55.51,0,0,1,.8-9.44c42.79,52.91,125.12,97,217.46,96.3,86.31-.67,171.11-45.93,214.93-99.27A45.85,45.85,0,0,1,2216,2081.21Z"/>
	</g>
</svg>