<svg
	xmlns="http://www.w3.org/2000/svg" viewBox="0 0 4000 4000">
	<defs>
		<style>.cls-1{fill:gray;}.cls-1,.cls-10,.cls-2,.cls-3,.cls-4,.cls-5,.cls-7,.cls-8,.cls-9{stroke:#333;stroke-linecap:round;}.cls-1,.cls-10,.cls-2,.cls-3,.cls-4,.cls-8,.cls-9{stroke-miterlimit:10;}.cls-1,.cls-10,.cls-2,.cls-3,.cls-5,.cls-7,.cls-8,.cls-9{stroke-width:5px;}.cls-10,.cls-2,.cls-4,.cls-5,.cls-7,.cls-8{fill:#333;}.cls-2{opacity:0.15;}.cls-3{fill:#4d4d4d;}.cls-4{stroke-width:3.31px;}.cls-5,.cls-7{stroke-linejoin:round;}.cls-5,.cls-6,.cls-8{opacity:0.2;}.cls-9{fill:#f2f2f2;}.cls-10{opacity:0.08;}</style>
	</defs>
	<title>hat</title>
	<g id="hat">
		<path class="cls-1" d="M1170.72,1370.28c-74.57,131.1-120,273.11-131,413.13l-2.52-.14q-8-.37-15.75-.38c-35.36,0-67.81,5.93-96.3,17.55.33-1,.67-2.09,1-3.13,67.39-210.29,202.17-369.15,241.26-440.82,0,0,.86,3.55,2.43,10.23C1170.14,1367.82,1170.42,1369,1170.72,1370.28Z"/>
		<path class="cls-2" d="M2926.13,1553.16c-26.56-25.71-119.63-103.1-326.37-159.93a20,20,0,0,1-14.31-15.46c-40.43-207.12-75.32-361.1-364.77-385.21-311.28-25.93-405.6,88.75-465.2,294.4-2.62,9-11.15,14.3-20.54,14.36-246.13,1.55-539.88,132.16-622.26,180.45q12.84-30.24,27.63-59.83c96.57-53.26,350.48-165.49,582-166.94,9.39-.06,17.92-5.33,20.54-14.36,59.6-205.65,176.51-334,487.79-308.08,70.83,5.9,126.7,20.64,171.27,42.57a287.19,287.19,0,0,1,65.09,43.48c83.43,74.46,108.06,188.89,133,316.85a20,20,0,0,0,14.31,15.46c137.4,37.77,229.25,79.38,279.29,109.32A858.25,858.25,0,0,1,2926.13,1553.16Z"/>
		<path class="cls-1" d="M2656.43,1372.21c-17.35-10.75-46.18-21.85-82.46-32.64-66.21-19.69-157.25-38.33-248.72-51.84-141.53-21.74-284.1-31.2-335.51-33-119.22-3.76-107.22-160.46-1-157.39,81.14,2.56,233.07,11.21,378,34.38,55.65,8.62,110.27,19.38,159.56,31.77,79.15,19.9,144.55,44,178.38,70.27C2800.59,1308.29,2656.47,1372,2656.43,1372.21Z"/>
		<circle class="cls-3" cx="2120.85" cy="1183.02" r="26.78"/>
		<circle class="cls-3" cx="2242.33" cy="1190.07" r="26.78"/>
		<circle class="cls-3" cx="2379.72" cy="1209.39" r="26.78"/>
		<circle class="cls-3" cx="2498.72" cy="1229.35" r="26.78"/>
		<circle class="cls-3" cx="1997.61" cy="1175.78" r="26.78"/>
		<circle class="cls-4" cx="1997.61" cy="1175.78" r="17.71"/>
		<circle class="cls-4" cx="2120.85" cy="1183.02" r="17.71"/>
		<circle class="cls-4" cx="2242.33" cy="1190.07" r="17.71"/>
		<circle class="cls-4" cx="2379.72" cy="1209.22" r="17.71"/>
		<circle class="cls-4" cx="2498.72" cy="1229.51" r="17.71"/>
		<path class="cls-5" d="M2718.26,1329c-24,26.33-61.81,43.09-61.83,43.22-17.35-10.75-46.18-21.85-82.46-32.64-66.21-19.69-157.25-38.33-248.72-51.84-141.53-21.74-284.1-31.2-335.51-33-98-3.09-107.33-109.5-48.57-145.58-34.63,44.9-16.2,124.91,68.57,127.58,51.41,1.75,194,11.21,335.51,33,91.47,13.51,182.51,32.15,248.72,51.84,36.28,10.79,65.11,21.89,82.46,32.64A247.94,247.94,0,0,0,2718.26,1329Z"/>
		<path class="cls-1" d="M2260.7,1116.42c-80.65-9.26-232.24-22.77-379-20.9q-18.93.15-37.71.64c-132.85,3.5-256.17,20-311.45,51.23-105.69,59.77,6.79,117.11,6.79,117.37,19.79-8.57,115.22-10.52,229.6-9.31,191.42,2,435.94,13,467.94,16.54C2355.36,1285.58,2366.24,1128.8,2260.7,1116.42Zm-410.8,86.15a26.79,26.79,0,1,1,26.79-26.79A26.79,26.79,0,0,1,1849.9,1202.57Zm147.71,0a26.79,26.79,0,1,1,26.78-26.79A26.79,26.79,0,0,1,1997.61,1202.57Zm123.24,7.24a26.79,26.79,0,1,1,26.78-26.79A26.79,26.79,0,0,1,2120.85,1209.81Zm121.48,7a26.78,26.78,0,1,1,26.79-26.78A26.78,26.78,0,0,1,2242.33,1216.85Z"/>
		<g class="cls-6">
			<path class="cls-7" d="M2307.55,1136.27c27.2,49.47-2.74,125.35-86.7,115.72-32-3.59-276.52-14.5-467.94-16.54-114.38-1.21-209.81.74-229.6,9.31a157.6,157.6,0,0,1-30.38-21.84c13.5,24.87,46.38,41.7,46.38,41.84,19.79-8.57,115.22-10.52,229.6-9.31,191.42,2,435.94,13,467.94,16.54C2333.33,1283.05,2358.47,1181.21,2307.55,1136.27Z"/>
		</g>
		<path class="cls-8" d="M1844,1096.16c-32.84,44.66-56.62,98.45-75.06,159.29-114.38-1.21-209.81.74-229.6,9.31,0-.26-112.48-57.6-6.79-117.37C1587.8,1116.16,1711.12,1099.66,1844,1096.16Z"/>
		<path class="cls-8" d="M2656.43,1372.21c-17.35-10.75-46.18-21.85-82.46-32.64-12.64-63.59-26-123.39-47.64-176,79.15,19.9,144.55,44,178.38,70.27C2800.59,1308.29,2656.47,1372,2656.43,1372.21Z"/>
		<path class="cls-9" d="M2918.09,1526.71s-52.25-81.67-303.7-150.79a20,20,0,0,1-14.31-15.46c-40.43-207.12-79.95-378.79-369.4-402.9-311.28-25.93-428.19,102.43-487.79,308.08-2.62,9-11.15,14.3-20.54,14.36-254.85,1.6-536.76,137.37-606.22,181a7.42,7.42,0,0,1-10.9-8.88c11.77-31.45,29.5-67.65,39.33-119.2,53.09-278.35,352.22-772.14,976.29-755.08C2704.32,593.84,2918.09,1060.55,2918.09,1526.71Z"/>
		<path class="cls-10" d="M2918.09,1526.71s-2.85-31.29-95.2-74.26c-35.82-421.46-260.54-810-792-824.56-177.95-4.86-329.49,31.81-456.42,93.18,143.35-90.61,324.3-149.25,546.42-143.18C2704.32,593.84,2918.09,1060.56,2918.09,1526.71Z"/>
	</g>
</svg>