<svg
	xmlns="http://www.w3.org/2000/svg" viewBox="0 0 4000 4000">
	<defs>
		<style>.cls-1{fill:#333;}.cls-2{fill:#d39f52;}.cls-3{fill:#c18f4d;}.cls-4{fill:#444;}.cls-5{fill:#55473b;}.cls-6{fill:#6b594b;}.cls-7{fill:#806a4a;}.cls-8{fill:#e6e6e6;}.cls-9{fill:none;stroke:#e5c89e;stroke-width:1.75px;}.cls-12,.cls-9{stroke-miterlimit:10;}.cls-10{opacity:0.2;}.cls-11{fill:#aaa;}.cls-12{fill:#f7c394;stroke:#333;stroke-width:5px;}.cls-13{opacity:0.08;}</style>
	</defs>
	<title>misc</title>
	<g id="misc">
		<path class="cls-1" d="M1935.42,3242.35c-1.16,21.65-5.91,42.41-13.84,60.31-9.66,21.82-23.89,38.62-41.14,48.59-1.75,1-3.57,2-5.55,2.9a60.38,60.38,0,0,1-24.39,5.94c-8.18.3-16.33-.84-25-2.05-3.43-.48-7-1-10.71-1.42a171.14,171.14,0,0,0-26.45-1.18l-2.41.11c-4,.2-7.74.53-11.56,1a162.08,162.08,0,0,0-16,2.77c-37.8,8.58-60.57,29-82.59,48.78-22.87,20.52-44.46,39.91-79.71,43.43-2.28.22-4.61.38-6.94.47-66.61,2.44-152.58-54.55-174.38-143.26-.39-1.6-.76-3.2-1.1-4.8-.12-.55-.24-1.11-.35-1.67l-.28-1.42q-.15-.67-.27-1.35a1.91,1.91,0,0,1,0-.21c-8.77-46.62,1.51-96,29-139.18,25-39.28,60.92-67.52,96.12-75.56a106.88,106.88,0,0,1,20-2.69c20.42-.75,37.34,5,53.71,10.48,17.05,5.75,34.69,11.7,57.37,10.87a140.81,140.81,0,0,0,33.27-5.5c17.77-5,31.55-10.63,43.71-15.6,18-7.35,33.56-13.7,53.73-14.44,2.06-.08,4.17-.1,6.28-.05,37.06.74,75.9,27.39,102.26,69.87l374.19-87.5a31.68,31.68,0,0,1,22.71-23.93l1-.26a19.74,19.74,0,0,1-1.66-4.49c-2.34-9.61,2.57-19.09,10.93-21.13a14.43,14.43,0,0,1,2.77-.38c7.59-.28,14.59,5.67,16.65,14.14a20.5,20.5,0,0,1,.57,3.91l36.49-9.9a20.39,20.39,0,0,1-1.64-4.43,19.54,19.54,0,0,1,1.11-12.76,14.8,14.8,0,0,1,9.84-8.36,13.49,13.49,0,0,1,2.76-.38c7.59-.28,14.59,5.66,16.65,14.13a20.56,20.56,0,0,1,.56,3.85l24.3-6.6a32.4,32.4,0,0,1,7.17-1.09,31.69,31.69,0,0,1,31.22,21.64,4.65,4.65,0,0,1,.2.52c.25.77.47,1.57.66,2.36l18.5,79.12a31.74,31.74,0,0,1-25.73,38.57l-24.95,4.13.18.68a19.56,19.56,0,0,1-1.11,12.77,14.8,14.8,0,0,1-9.83,8.36,13.68,13.68,0,0,1-2.77.38c-7.59.28-14.59-5.66-16.65-14.13a21.67,21.67,0,0,1-.5-3l-35.83,5.94c0,.15.07.29.11.44a19.5,19.5,0,0,1-1.11,12.77,14.8,14.8,0,0,1-9.83,8.36,13.68,13.68,0,0,1-2.77.38c-7.59.28-14.59-5.66-16.65-14.13a21.86,21.86,0,0,1-.48-2.72l-2.08.34a32.18,32.18,0,0,1-4,.41,31.86,31.86,0,0,1-12.86-2.23"/>
		<path class="cls-2" d="M1926.91,3203.71c8.47,50.09-6,116.67-49.72,141.91-32.28,18.65-51.73-1.89-103.57,4.48-93.58,11.49-107.46,87.91-178.15,95-66.63,6.65-153.11-51.37-174.37-137.87-24.83-101.06,49.31-200.57,118.18-216.29,61.94-14.15,85.9,35.27,164.7,13.08,47.14-13.28,66-30.57,101.83-29.86C1860.8,3075.22,1915.8,3137.91,1926.91,3203.71Z"/>
		<path class="cls-3" d="M1926.92,3203.71c8.45,50.09-6,116.67-49.73,141.91-32.28,18.64-51.73-1.89-103.57,4.48-93.58,11.5-107.46,87.91-178.15,95-66.62,6.63-153.11-51.38-174.37-137.88-.73-3-1.37-5.93-1.93-8.89,24.49,82,107.64,136.22,172.18,129.79,70.68-7,84.56-83.46,178.14-94.95,51.84-6.37,71.29,14.16,103.57-4.48,43.71-25.24,58.19-91.82,49.73-141.91l-.45-2.54A166.66,166.66,0,0,1,1926.92,3203.71Z"/>
		<ellipse class="cls-4" cx="2319.57" cy="3017.62" rx="9.12" ry="11.45" transform="translate(-647.09 633.22) rotate(-13.66)"/>
		<ellipse class="cls-4" cx="2385.35" cy="2999.84" rx="9.12" ry="11.45" transform="translate(-641.03 648.25) rotate(-13.66)"/>
		<ellipse class="cls-5" cx="1762.35" cy="3224.64" rx="55.75" ry="51.31" transform="translate(-711.75 507.47) rotate(-13.66)"/>
		<rect class="cls-6" x="1555.08" y="3225.24" width="29.22" height="88.91" rx="7.52" ry="7.52" transform="translate(3867.23 6076.15) rotate(166.34)"/>
		<polygon class="cls-3" points="1907.49 3153.3 2327.07 3055.19 2346.78 3139.48 1927.21 3237.59 1923.93 3194.75 1907.49 3153.3"/>
		<path class="cls-7" d="M1887.11,3149.1l416.65-97.43,19.72,84.29-416.71,97.45a4.38,4.38,0,0,1-4.56-1.74l-23.56-33.45a4.38,4.38,0,0,1-.76-3.12l5.89-42.35A4.36,4.36,0,0,1,1887.11,3149.1Z"/>
		<path class="cls-2" d="M2306.8,3032.33l120.29-32.65a25.27,25.27,0,0,1,31.22,18.62l18.5,79.13a25.26,25.26,0,0,1-20.46,30.67l-124.28,20.61a25.26,25.26,0,0,1-28.82-19.57l-14.52-67.09A25.26,25.26,0,0,1,2306.8,3032.33Z"/>
		<circle class="cls-8" cx="2328.14" cy="3054" r="5.49"/>
		<circle class="cls-8" cx="2393.73" cy="3035.87" r="5.49"/>
		<polyline class="cls-9" points="2328.03 3053.9 2282.84 3068.05 1562.76 3240.03"/>
		<polyline class="cls-9" points="1567.37 3257.13 2285.43 3083.95 2393.74 3035.76"/>
		<circle class="cls-8" cx="2344.14" cy="3119.86" r="5.49"/>
		<circle class="cls-8" cx="2410.75" cy="3105.86" r="5.49"/>
		<polyline class="cls-9" points="2344.09 3120 2295.39 3119.67 1576.7 3297.41"/>
		<polyline class="cls-9" points="1572.26 3277.14 2290.39 3104.36 2410.8 3105.94"/>
		<path class="cls-10" d="M2458.31,3018.31l18.5,79.12a25.26,25.26,0,0,1-20.46,30.67l-124.28,20.61a25.26,25.26,0,0,1-28.82-19.57l-1.15-5.32a25.27,25.27,0,0,0,27.91,16.41l124.27-20.62a25.24,25.24,0,0,0,20.46-30.66l-16.94-72.46C2458,3017.08,2458.16,3017.68,2458.31,3018.31Z"/>
		<rect class="cls-11" x="2346.81" y="3140.03" width="4.52" height="11.07" transform="matrix(0.99, -0.17, 0.17, 0.99, -503.54, 448.28)"/>
		<ellipse class="cls-4" cx="2350.88" cy="3153.81" rx="9.12" ry="11.45" transform="translate(-678.37 644.47) rotate(-13.66)"/>
		<rect class="cls-11" x="2413.39" y="3129.24" width="4.52" height="11.07" transform="matrix(0.99, -0.17, 0.17, 0.99, -500.71, 459.51)"/>
		<ellipse class="cls-4" cx="2417.46" cy="3143.02" rx="9.12" ry="11.45" transform="translate(-673.94 659.89) rotate(-13.66)"/>
		<line class="cls-9" x1="1915.6" y1="3142.3" x2="1935.35" y2="3226.59"/>
		<line class="cls-9" x1="1946.94" y1="3135.11" x2="1966.75" y2="3219.38"/>
		<line class="cls-9" x1="1980.56" y1="3127.4" x2="2000.32" y2="3211.69"/>
		<line class="cls-9" x1="2011.63" y1="3120.07" x2="2031.38" y2="3204.35"/>
		<line class="cls-9" x1="2042.7" y1="3112.73" x2="2062.45" y2="3197.02"/>
		<line class="cls-9" x1="2073.77" y1="3105.4" x2="2093.52" y2="3189.68"/>
		<line class="cls-9" x1="2104.83" y1="3098.06" x2="2124.59" y2="3182.35"/>
		<line class="cls-9" x1="2135.9" y1="3090.72" x2="2155.65" y2="3175.01"/>
		<line class="cls-9" x1="2166.97" y1="3083.39" x2="2186.72" y2="3167.68"/>
		<line class="cls-9" x1="2198.17" y1="3076.36" x2="2217.89" y2="3160.65"/>
		<line class="cls-9" x1="2229.2" y1="3069.11" x2="2248.98" y2="3153.38"/>
		<line class="cls-9" x1="2260.28" y1="3061.84" x2="2279.94" y2="3146.14"/>
		<path class="cls-12" d="M1613.57,3252.63a72.53,72.53,0,0,1-25.62-2.09c-21.92-5.81-40.56-20.46-55.41-43.56a153.74,153.74,0,0,1-19.9-46.76c-9.38-40,1-76.72,28.37-100.72a72.55,72.55,0,0,1,118.41,71.25,72.57,72.57,0,0,1-45.85,121.88Z"/>
		<path class="cls-13" d="M1654.32,3235c-1.42,1.24-2.87,2.42-4.38,3.55t0,0c-.72.54-1.47,1.07-2.21,1.59h0c-.72.51-1.47,1-2.22,1.48-.91.58-1.84,1.15-2.8,1.7-.61.35-1.24.69-1.87,1l-.32.16c-.68.37-1.38.73-2.09,1.07-.4.2-.8.38-1.2.57s-.83.4-1.26.57-.83.38-1.25.55-.83.35-1.25.51c-1.25.5-2.52,1-3.82,1.41l-1.29.41-1.16.37c-.78.24-1.58.46-2.39.66l-1.37.34-.85.21-.82.17a70.89,70.89,0,0,1-8.13,1.27,72.28,72.28,0,0,1-25.62-2.09c-21.92-5.8-40.56-20.46-55.41-43.55-1.31-2-2.58-4.13-3.78-6.27s-2.51-4.48-3.68-6.78c-.63-1.24-1.24-2.48-1.84-3.73a153.28,153.28,0,0,1-9.86-27c-.26-1-.51-2-.75-3a128.77,128.77,0,0,1-2.81-16.89c-.09-.89-.16-1.77-.22-2.64,0-.38-.06-.78-.09-1.16-.07-1-.12-1.89-.15-2.81,0-.74,0-1.47-.07-2.21,0-.21,0-.41,0-.61,0-.85,0-1.71,0-2.55,0-.4,0-.8,0-1.17,0-.75,0-1.48,0-2.21.08-1.72.17-3.43.31-5.12,0-.46.09-.93.13-1.4.13-1.33.27-2.66.47-4,.07-.6.16-1.18.25-1.77a98.6,98.6,0,0,1,2.19-10.55c.14-.48.27-1,.41-1.45.32-1.16.67-2.31,1-3.43.17-.55.36-1.1.56-1.65s.45-1.33.71-2,.51-1.4.79-2.07c.81-2,1.68-4,2.63-6a91.16,91.16,0,0,1,22.2-29.09,73.21,73.21,0,0,1,12.65-8.91v.08s0,0,0,0v0a.63.63,0,0,1,0,.13h0c-10.45,20.94-9.29,65.39-3,92a153.55,153.55,0,0,0,19.9,46.75c14.85,23.1,33.49,37.76,55.41,43.56a72.23,72.23,0,0,0,25.61,2.09C1652.5,3235.19,1653.42,3235.09,1654.32,3235Z"/>
	</g>
</svg>