<svg
	xmlns="http://www.w3.org/2000/svg" viewBox="0 0 4000 4000">
	<defs>
		<style>.cls-1{fill:#ffcd98;stroke:#333;stroke-miterlimit:10;stroke-width:5px;}.cls-2{opacity:0.08;}.cls-3{fill:#fff;}.cls-4{opacity:0.05;}.cls-5{fill:#7f6145;}.cls-6{opacity:0.1;}.cls-7{opacity:0.2;}.cls-8{fill:#3d0c0c;}.cls-9{fill:#b34a31;}.cls-10{fill:#d6d6d6;}.cls-11{fill:#181818;}.cls-12{fill:#eaeaea;}.cls-13{fill:#c1c1c1;}.cls-14{fill:#933b2a;}.cls-15{fill:#b5482c;}</style>
	</defs>
	<title>mouth</title>
	<g id="mouth">
		<path class="cls-1" d="M2638.43,2122.75c-.2-23.7,111.61-69.84,111.45-275.69-.25-318.49-258.75-643.25-482.28-643.25-155.64,0-248.88,116.58-268,116.74-22.73.2-95.64-116.75-268-116.74-223.2,0-482.73,324.76-482.47,643.25.17,199.4,111.75,254.94,111.93,275.55s-236.85,48.83-236.85,281.27c0,178,449,511.08,910.31,497.74,420.49-12.16,840.86-314.91,840.86-524.16C2875.31,2145.33,2638.62,2143.88,2638.43,2122.75Zm-689.76-296.93c-10.8,55.65-39.63,104.35-81.16,137.14-32.82,25.91-70.48,39.45-108.51,39.45a161.3,161.3,0,0,1-30.65-3C1629.19,1980.21,1566.68,1871,1589,1756s121.16-192.88,220.32-173.63c48.1,9.34,89.08,39.84,115.39,85.9S1959.47,1770.18,1948.67,1825.82Zm439.53,81c-25.51,46.51-65.95,77.73-113.88,87.9a160.79,160.79,0,0,1-33.39,3.52c-37.09,0-73.93-12.87-106.38-37.58-42.11-32.06-71.77-80.25-83.54-135.7s-4.24-111.53,21.21-157.93,66-77.73,113.88-87.91c98.8-21,199,55.18,223.31,169.76C2421.18,1804.3,2413.64,1860.39,2388.2,1906.79Z"/>
		<path class="cls-2" d="M2875.31,2377.46c0,209.26-420.37,512-840.86,524.16-461.31,13.34-910.31-319.74-910.31-497.74q0-7.14.3-14c38.59,182.8,468.4,486,909.44,473.26,406.19-11.75,812.27-294.09,841-502.25Q2875.31,2369,2875.31,2377.46Z"/>
		<path class="cls-3" d="M1758.29,1403.06c-172.54-20-337.69,181.45-333.36,371.56,3.24,141.94,101.7,310.86,253.5,328.16,167.19,19,313.5-155.61,329.88-323C2024.77,1611.81,1913.18,1421.05,1758.29,1403.06Zm190.38,422.76c-10.8,55.65-39.63,104.35-81.16,137.14-32.82,25.91-70.48,39.45-108.51,39.45a161.3,161.3,0,0,1-30.65-3C1629.19,1980.21,1566.68,1871,1589,1756s121.16-192.88,220.32-173.63c48.1,9.34,89.08,39.84,115.39,85.9S1959.47,1770.18,1948.67,1825.82Z"/>
		<path class="cls-4" d="M1834.52,1427a214.27,214.27,0,0,0-31.9-6.17c-175.15-20.17-342.8,182.73-338.41,374.18,2.47,107.25,59.36,229.79,152.7,291.65-116.4-48.78-189.2-190.33-192-312-4.33-190.11,160.82-391.59,333.36-371.55A217.6,217.6,0,0,1,1834.52,1427Z"/>
		<path class="cls-3" d="M2234,1398.91c-154.54,20.68-262.79,213.36-243.4,381.08,19.3,167,168.63,339.1,335.47,317.13,151.47-19.94,247-190.55,247.73-332.52C2574.78,1574.44,2406.14,1375.87,2234,1398.91Zm154.23,507.88c-25.51,46.51-65.95,77.73-113.88,87.9a160.79,160.79,0,0,1-33.39,3.52c-37.09,0-73.93-12.87-106.38-37.58-42.11-32.06-71.77-80.25-83.54-135.7s-4.24-111.53,21.21-157.93,66-77.73,113.88-87.91c98.8-21,199,55.18,223.31,169.76C2421.18,1804.3,2413.64,1860.39,2388.2,1906.79Z"/>
		<path class="cls-4" d="M2573.77,1764.6c-.66,123.27-72.75,268.13-190.88,317.21,95.29-61.62,152.08-188.08,152.66-297.55,1-190.6-168-389.61-340.57-366.52a211.81,211.81,0,0,0-45.38,11.34c26-15.6,54.29-26.14,84.37-30.17C2406.14,1375.87,2574.78,1574.44,2573.77,1764.6Z"/>
		<path class="cls-5" d="M1784.05,2081.38c0,75.28,98.57,166.65,215.68,165.63,107.93-.94,213.18-91.24,213.18-165.41,0-59.68-124.17-112.16-213.18-111.39C1917.1,1970.93,1784.05,2010.78,1784.05,2081.38Z"/>
		<path class="cls-6" d="M2212.91,2101.6c0,74.17-105.25,164.47-213.18,165.41-117.11,1-215.68-90.35-215.68-165.63a54.18,54.18,0,0,1,.71-8.78c9,72.83,103.62,155.38,215,154.41,102.38-.89,202.34-82.18,212.35-153.85A43.67,43.67,0,0,1,2212.91,2101.6Z"/>
		<path class="cls-7" d="M2212.91,2081.6c0,74.17-105.25,164.47-213.18,165.41-117.11,1-215.68-90.35-215.68-165.63a55.09,55.09,0,0,1,.79-9.31c42.18,52.17,123.35,95.66,214.39,94.95,85.09-.67,168.69-45.29,211.9-97.87A45.3,45.3,0,0,1,2212.91,2081.6Z"/>
		<path class="cls-8" d="M2604.85,2327.51c32.86-4.67,56.78,23.09,47.76,56.23-11.92,43.71-35.48,86.91-68.72,127.63q-11.32,13.9-24.2,27.4c-117.14,123.43-325,216.52-562.28,216.12-237.33.4-445.14-92.69-562.28-216.12q-12.84-13.48-24.2-27.4c-33.25-40.72-56.79-83.92-68.71-127.63-9-33.14,14.89-60.9,47.75-56.23A4319.34,4319.34,0,0,0,2604.85,2327.51Z"/>
		<path class="cls-8" d="M1998.91,2773.58h-3.05c-114.34,0-229-21.76-331.62-63-97-39-180.93-93.93-242.66-159-8.9-9.34-17.37-18.93-25.14-28.47-35.44-43.4-59.75-88.66-72.25-134.51-6.06-22.23-1.46-44.13,12.62-60.09,13.71-15.53,34-22.65,55.79-19.56a4300.73,4300.73,0,0,0,604.81,42.75A4300.63,4300.63,0,0,0,2602.22,2309h0c21.75-3.09,42.09,4,55.79,19.56,14.08,16,18.68,37.86,12.63,60.08-12.5,45.85-36.82,91.11-72.27,134.53-7.83,9.61-16.3,19.2-25.16,28.49-61.7,65-145.61,120-242.63,158.94C2228,2751.82,2113.3,2773.58,1998.91,2773.58Zm-1.53-37.38h1.47c109.73,0,219.56-20.83,317.8-60.28,92.07-37,171.42-88.84,229.48-150,8.23-8.62,16-17.47,23.28-26.34,32.13-39.36,54.05-80,65.17-120.73,2.68-9.87,1-19.17-4.6-25.53-5.3-6-13.29-8.6-22.5-7.29h0a4336,4336,0,0,1-1220.14,0c-9.2-1.31-17.2,1.28-22.5,7.29-5.61,6.36-7.28,15.66-4.59,25.53,11.12,40.77,33,81.38,65.15,120.72,7.18,8.81,15,17.66,23.26,26.33,58.09,61.2,137.44,113.08,229.51,150,98.23,39.45,208.08,60.28,317.75,60.28Z"/>
		<path class="cls-3" d="M2442.1,2633.43c-117.54,73.35-273.43,121.75-444.69,121.46-171.25.29-327.12-48.1-444.66-121.44A6224.59,6224.59,0,0,0,2442.1,2633.43Z"/>
		<path class="cls-2" d="M1928.82,2752.38c-144.13-10.75-274.43-55.51-376.06-118.93q44,3.15,88,5.68C1722.22,2692.9,1820.59,2733.37,1928.82,2752.38Z"/>
		<path class="cls-2" d="M2442.1,2633.43a756.16,756.16,0,0,1-119.55,60.26,706.76,706.76,0,0,0,88.11-58.09Q2426.37,2634.56,2442.1,2633.43Z"/>
		<path class="cls-9" d="M3132.37,2587s-4,239.11-199.34,207.23c-52.85-8.62-117.39-24.25-184.07-43.3-1.77-.5-3.53-1-5.3-1.52-66.86-19.24-135.61-41.83-196.64-64.17-1.7-.61-3.37-1.23-5-1.85-48-17.68-91-35.14-124.27-50.6-1.65-.76-3.26-1.52-4.85-2.27-32.88-15.55-55.37-28.92-62.39-38.22-32.1-42.53-34.93-87.15,39.69-112.08,13.5-4.51,42.37-7.47,80.89-9.23l6.31-.27c39.67-1.63,88.76-2.08,141.51-1.69l6.44,0c58.28.49,120.68,2,179.54,4l5.91.2c121.78,4.18,227.26,10.48,247.94,14.62Z"/>
		<path class="cls-10" d="M2934.48,2481.75c-15.11,1.72-40.92,6-46.34,21.21-5.1,14.38,11.65,28.17,5.29,38.66-8.24,13.6-42.26.18-49.33,13-5.46,9.88,13.05,21.24,10,41.85-2.47,16.56-15.64,17.45-16.45,31.35-1.17,20,25.65,25.68,27,48.36,1.09,18.82-17.53,25.13-13.35,39.27,4.77,16.14,31.33,16.39,33.95,33.49,1.12,7.32-3.58,8.3-2.53,15.2,3.19,20.94,49.81,31.11,68.92,32.93,13.07,1.25,18-.16,34.65,2.44,15.85,2.48,26.88,6.39,33.67,8.3,0,0,14.25,4,43.4,1.52,47.14-4.05,174-109.15,145.45-209.39-6.16-21.62-17.58-35.11-29.59-49.31C3104.62,2462.48,2982.63,2476.3,2934.48,2481.75Z"/>
		<path class="cls-11" d="M2986.22,2799.48a190.21,190.21,0,0,1,25.26,5.79C3001,2802.88,2992.36,2800.9,2986.22,2799.48Z"/>
		<path class="cls-12" d="M2976.46,2797.21c1.2.45,2.64,1,4.28,1.5-12.49-1.55-17.65-.58-29.17-1.68-19.11-1.82-65.74-12-68.92-32.93-1.06-6.9,3.65-7.88,2.53-15.19-2.61-17.11-29.18-17.36-33.95-33.51-4.18-14.12,14.44-20.44,13.35-39.26-1.3-22.68-28.13-28.35-27-48.36.82-13.9,14-14.79,16.46-31.35,3.08-20.61-15.43-32-10-41.85,7.06-12.78,41.08.64,49.32-13,6.36-10.49-10.4-24.27-5.28-38.67,5.4-15.23,31.23-19.48,46.34-21.19,16.21-1.84,40.77-4.63,69.08-4.14-19.7.66-36.62,2.57-48.81,4-15.1,1.72-40.92,6-46.33,21.21-5.11,14.38,11.64,28.17,5.29,38.67-8.24,13.59-42.27.17-49.33,13-5.47,9.88,13,21.24,10,41.86-2.46,16.55-15.64,17.44-16.45,31.35-1.17,20,25.66,25.68,27,48.35,1.08,18.82-17.54,25.13-13.36,39.27,4.78,16.14,31.33,16.4,34,33.49,1.11,7.33-3.59,8.31-2.54,15.21,3.19,20.93,49.81,31.1,68.92,32.93C2973.51,2797,2975,2797.13,2976.46,2797.21Z"/>
		<path class="cls-13" d="M3050.27,2481.61a10.57,10.57,0,0,0-1.59-.15c-30.63-1-57.35,2.06-74.61,4-15.11,1.7-40.92,6-46.34,21.2-3.15,8.89-.8,19.1.19,27.95a11.71,11.71,0,0,1-8.62,12.6c-14.33,3.83-31.3,3.26-35.61,11.07-5.45,9.88,13,21.24,10,41.85-2.47,16.57-15.64,17.45-16.45,31.35-.45,7.65,4.22,12.43,7.95,18.42,7.11,11.44,10.19,25.91,10.64,30.35,1.9,18.75-14.91,28-5,38.86,6.79,7.44,10.7,8.66,19.34,20.3,5.19,7,6.08,21.13,6.65,24.6,2.84,17.24,35.74,29.52,57.25,34h0c2,.14,4.18.34,6.66.66-1.64-.54-3.07-1-4.28-1.5h0l-1.89-.49c-.6-.15-1.21-.32-1.82-.49l-.32-.08c-1-.28-2.1-.58-3.16-.89-2.81-.8-5.7-1.7-8.67-2.67-17.35-5.73-26.14-8.74-31.59-15.94,8-6.8-16-49.14-19.11-55.45-5.75-11.5,3.62-16.35.31-33.42-.34-1.75-8.72-15.71-8.46-28.24.22-10.45,8.24-18.86,4.92-22.11a18.9,18.9,0,0,1-4.29-5.66,13.78,13.78,0,0,1-1.17-8.05c1-7.36,5.14-7.39,6.92-15.9,2-9.77-3-12.71-.31-19.11,3.31-7.76,11.6-5.38,16.48-13.18,3.74-5.95,4.11-15.32,5.31-23.59a11.69,11.69,0,0,1,6.91-9,149.69,149.69,0,0,0,16-7.86c13.62-8.19,19.07-18.59,23.87-24.49,21.67-26.69,79.21-22.19,89.15-21.41,21,1.64,44.4,9.07,66.54,21.35C3105.92,2494.7,3077.58,2486,3050.27,2481.61Zm-122.78,292.84-.38-.6c-.45-.74-.88-1.5-1.28-2.27.88,1.49,1.63,2.74,2.2,3.68C2927.85,2775,2927.66,2774.73,2927.49,2774.45Z"/>
		<path class="cls-11" d="M3011.48,2805.27c-10.45-2.39-19.12-4.37-25.26-5.79,3.05.47,5.93,1,8.63,1.56C3001.4,2802.4,3006.93,2803.92,3011.48,2805.27Z"/>
		<path class="cls-11" d="M3057.11,2809.74l-1.22.23c-6.32.31-12.06.25-17,0C3043.92,2810.19,3050,2810.17,3057.11,2809.74Z"/>
		<path class="cls-14" d="M2810.76,2473.18l-5.91-.2a405.12,405.12,0,0,0-36,70.81,415.83,415.83,0,0,0-28.5,156,422.19,422.19,0,0,0,3.31,49.57c1.77.52,3.53,1,5.3,1.52a422.68,422.68,0,0,1-3.54-51.13,410.89,410.89,0,0,1,28.15-154.11A399,399,0,0,1,2810.76,2473.18Z"/>
		<path class="cls-14" d="M2618.87,2469a363.07,363.07,0,0,0-48.32,81.61A354.29,354.29,0,0,0,2542,2683.34c1.67.62,3.34,1.24,5,1.85a349.51,349.51,0,0,1,28.19-132.6,358,358,0,0,1,50.1-83.57Z"/>
		<path class="cls-14" d="M2471.05,2470.94a362.6,362.6,0,0,0-31.69,58.64,354.33,354.33,0,0,0-26.5,100.89c1.59.75,3.2,1.51,4.85,2.27A349.15,349.15,0,0,1,2444,2531.57a356,356,0,0,1,33.33-60.9Z"/>
		<path class="cls-7" d="M2936.12,2794.67c-1-.15-2.06-.32-3.09-.49-195.34-31.87-550.47-159.41-582.56-201.93-16.48-21.84-25.25-44.23-19.77-64.22a150.44,150.44,0,0,0,9.18,13.6c29.57,39.16,333.08,150.42,533.46,192.66,5.84,3.56,10.79,7.72,11.84,14.62,1.12,7.31-3.59,8.29-2.53,15.19C2885.14,2780.53,2914.41,2790.33,2936.12,2794.67Z"/>
		<path class="cls-6" d="M2611.32,2479q-10.77,1.22-21.54,2.39l-9.9,1.07-15.75,1.67-6.82.72h0q-10.68,1.1-21.37,2.16-7.08.72-14.18,1.4-86.85,8.39-174,14a93.44,93.44,0,0,1,16.27-11.08q78.9-5.29,157.62-12.9,7.09-.69,14.18-1.4,10.68-1,21.36-2.16h0c2.27-.23,5.06-.39,7.33-.63,5.25-.55,9.65-.86,14.9-1.43,3.3-.35,7-.87,10.28-1.1,8.72-.61,24.23-3.2,29.14-2.7C2618.31,2469.67,2613,2476.5,2611.32,2479Z"/>
		<path class="cls-11" d="M3221.58,2648c.23,76.11-62.09,127.59-98,144.95-30.55,14.77-67.87,17.34-75.51,17.57-8.82.27-23.21-1.2-28.16-2.76-.4-.12-3-.95-6.51-1.92,0,0-2.85-.8-5.59-1.43-7.1-1.62-10.66-1.55-15.76-2.65a110.37,110.37,0,0,1-15.57-4.56c-5-1.25-10.3-2.77-15.85-4.61-17.36-5.73-26.15-8.74-31.6-15.94-5.66-7.5-8.66-18.87-9.16-21.25-1.38-6.53-.33-7.27-1.85-11.25-4.06-10.59-9.74-12.77-13.53-20.33-5.74-11.51,7.85-18.26,4.54-35.33-2.58-13.29-14.44-15.51-13.11-26.35,1.08-8.65,8.93-9.63,9.58-19.29.57-8.59-5.48-10.51-4.27-19.13,1-7.36,5.14-7.39,6.92-15.9,2-9.77-3-12.71-.31-19.11,3.31-7.76,11.6-5.37,16.48-13.18,5.59-8.92-2.6-16.18,2.15-25.52,4.25-8.33,13.12-7.17,26.11-15,13.62-8.19,19.07-18.59,23.87-24.49,21.67-26.69,79.21-22.19,89.15-21.41C3131.71,2494.31,3221.29,2556.67,3221.58,2648Z"/>
		<path class="cls-15" d="M3077.39,2639c1.7,1,3.29-1.64,8.69-3.25,6.48-1.94,9.07.37,12.5-2.18,2.85-2.13,4.52-6.32,3.26-8.15-.82-1.18-2.55-.91-10.87,0-10.17,1.11-11.59,1.13-13,2.72C3074.93,2631.41,3075.13,2637.71,3077.39,2639Z"/>
		<path class="cls-15" d="M3121.4,2674.31c-3.48,2.43-1.32,9.78-3.26,10.32-1,.28-2.59-1.47-3.38-3.11-2.16-4.49,1.51-8.18-.43-11s-6.4-.87-7.6-3.26,2-7.85,5.43-8.15c2.48-.22,2.93,2.42,7.06,3.8,4.42,1.47,6.52-.69,8.69,1.09,2.5,2,2.73,7.33.55,9.23C3126.45,2675,3123.79,2672.64,3121.4,2674.31Z"/>
		<path class="cls-15" d="M3074.21,2605.78c2.93,2,8.42-1.49,11.83-3.66,4.41-2.83,3.64-3.52,6.76-5.35,6.78-4,10.74-.89,16.61-5.07,1.12-.8,5.24-3.73,4.79-7.32a5.08,5.08,0,0,0-3.38-4.23c-3.05-.72-4.32,3.72-9.86,5.63-2.93,1-2.88-.12-11,.57a38.57,38.57,0,0,0-9.57,1.69c-3.16,1.06-7.58,3.13-7.33,4.5s5.67,1.05,5.92,2.54-5.71,2.52-6.48,6.19A4.65,4.65,0,0,0,3074.21,2605.78Z"/>
		<path class="cls-15" d="M3189.68,2656.38c-.3,1.67,1.43,2.21,3.32,5.81s1.32,5.2,2.9,6,4.38.07,5.6-1.66c1.93-2.73-.62-6.55-.83-6.85-.91-1.33-1.43-1.1-3.11-3.11s-1.69-3-2.7-3.32C3193.06,2652.63,3190,2654.34,3189.68,2656.38Z"/>
		<path class="cls-15" d="M3134.74,2709.26c2.29,1.74,7.87-2.38,9.13-3.32a23,23,0,0,0,8.09-10.37c.46-1.19,3.42-8.88.42-11.42-1.11-.92-3-1.14-3.74-.41s.25,2.33,0,5.6c-.11,1.49-.28,3.66-1.66,4.36s-2.94-.31-3.11-.41c-2.62-1.59-2.7-5.45-3.12-5.4s1.51,5.79-1,10.17c-1.92,3.31-5,3.42-5.81,6.85C3133.61,2706.19,3133.55,2708.37,3134.74,2709.26Z"/>
		<path class="cls-15" d="M3148,2595.43c-2.15,3.54-2.61,4.18-2.31,4.83.56,1.23,3.23,1.11,4.62,1,4.52-.21,10.16-2.2,10.08-4.2-.05-1.27-2.41-2.64-4.41-2.52-2.18.12-3.24,1.95-4.2,1.47-1.27-.64-.29-4.19-1.05-4.42C3150.29,2591.52,3149.73,2592.54,3148,2595.43Z"/>
		<path class="cls-15" d="M2948.46,2662.06c1.95,0,1.43,6.41,6.76,13.53,5.6,7.48,12.47,8.84,12,10.16-.69,2-17.46,2.59-22.15-7.08C2941.66,2671.63,2946.06,2662,2948.46,2662.06Z"/>
		<path class="cls-15" d="M3012.45,2730.67c.34,3,8.11,4.16,11.08,4.61s13.28,2,15.38-2.15c.64-1.28.36-2.75,0-4.62-.19-1-1-5.46-3.08-5.84-2.21-.43-2.83,4.55-6.77,5.84-4.54,1.49-7.77-3.82-12.61-2.15C3014.32,2727.09,3012.26,2729,3012.45,2730.67Z"/>
		<path class="cls-15" d="M3078,2718.36c1.87,1.45,4.66.78,10.16-.62,7.05-1.79,8.23-3.41,8.61-4,1.07-1.66,1.75-4.41.62-5.53-1.43-1.41-4.29,1.1-11.08,2.46-6.17,1.23-9.13.22-10.15,2.15C3075.28,2714.44,3076.33,2717.08,3078,2718.36Z"/>
		<path class="cls-15" d="M3017.07,2643.9c1.14,2.44,4.17,2.88,5.53,3.08,3.82.55,6.87-1.12,9.23-2.46,3.35-1.9,7.48-4.24,7.39-7.69-.07-2.79-2.88-5.75-5.23-5.54-1.74.15-2.89,2-4.31,4.31-2.61,4.22-2.1,6.46-3.69,7.07-2.73,1-6.2-4.76-8.31-3.69C3016.47,2639.59,3016.25,2642.17,3017.07,2643.9Z"/>
		<path class="cls-15" d="M3035.22,2707.28c3.26,2.54,8.58-.26,9.23-.61s5.67-3.19,6.15-8.62c.34-3.87-1.83-7.53-2.77-7.38s-.21,5.07-2.15,5.85c-2.19.88-6-4.28-6.77-3.7s2.86,4.62,1.54,7.08-6.23,1.13-7.08,3.38C3032.87,2704.62,3034.09,2706.4,3035.22,2707.28Z"/>
		<path class="cls-15" d="M3161.67,2566.68c.68,1.75,2.84,7.35,7.69,9.23,5.12,2,11.78-.75,12-3.08.09-.93-2.3-2.68-7.08-6.15-3.5-2.54-4-2.74-5.23-4-2.64-2.79-2.2-4.06-4.3-6.15-3.23-3.2-8.23-4.13-8.93-3.08-.55.84,2,2.43,4,7.08C3161.11,2563.46,3160.66,2564.06,3161.67,2566.68Z"/>
		<path class="cls-15" d="M3043.4,2600.44c2.18,2.89,6.51,3.79,9.92,2.63.42-.15,5.63-2,5.55-5.84-.07-3.15-3.64-5.88-5.26-5.25-1.9.74-.36,5.83-2.62,7-2.66,1.38-7.4-4.31-8.76-3.21C3041.46,2596.4,3042.2,2598.84,3043.4,2600.44Z"/>
		<path class="cls-15" d="M3153.39,2731.2c2.18,2.89,6.51,3.78,9.92,2.62.42-.14,5.62-2,5.54-5.83-.06-3.15-3.63-5.89-5.25-5.26-1.91.74-.37,5.84-2.63,7-2.65,1.37-7.39-4.32-8.75-3.21C3151.45,2727.15,3152.18,2729.6,3153.39,2731.2Z"/>
		<path class="cls-15" d="M2993.26,2689.66c2.18,2.89,6.51,3.79,9.92,2.63.42-.14,5.62-2,5.54-5.84-.06-3.14-3.63-5.88-5.25-5.25-1.91.74-.37,5.83-2.63,7-2.65,1.38-7.39-4.31-8.75-3.21C2991.32,2685.62,2992.05,2688.07,2993.26,2689.66Z"/>
		<path class="cls-15" d="M3056.24,2566.3c2.31.32,2.82-3.34,7.3-5.25,4.86-2.08,8.06.63,10.5-1.76,2.13-2.07,2.06-6.43.58-7.29-1.64-.95-3.72,3.17-9,4.67-6.68,1.88-11.17-2.45-13.13-.29S3053.11,2565.86,3056.24,2566.3Z"/>
		<path class="cls-15" d="M3116.85,2752.08c2.32.32,2.83-3.35,7.3-5.26,4.86-2.08,8.06.63,10.5-1.75,2.14-2.07,2.07-6.44.59-7.29-1.65-1-3.73,3.17-9,4.67-6.68,1.87-11.17-2.45-13.13-.3S3113.72,2751.64,3116.85,2752.08Z"/>
		<path class="cls-15" d="M3050,2519.59a23.25,23.25,0,0,0,5.25,3.21c7.91,3.87,8.14,5.91,10.51,5.54,4.21-.64,8.43-7.81,6.13-12-1.2-2.16-4.3-3.74-6.42-2.92-2.69,1.05-2.18,5.34-4.38,5.84-1.92.43-2.88-2.71-7-4.38-3.16-1.28-7.05-1.24-7.59,0S3048.88,2518.7,3050,2519.59Z"/>
		<path class="cls-15" d="M3149.62,2639.25c-3.65,5.91-3.63,14-1.46,14.88,1.25.52,3.33-1.29,4.38-2.91,1.67-2.59.65-4.61,1.17-8.47.82-6.18,4.53-9.28,3.79-9.92S3152.33,2634.88,3149.62,2639.25Z"/>
		<path class="cls-15" d="M3183.9,2618.81c-2.3.73-3.09,9.24,0,10.8,1.77.89,4.89-.49,5.83-2.63C3191.36,2623.25,3186,2618.14,3183.9,2618.81Z"/>
		<path class="cls-15" d="M3180.21,2692.31c.62,2.75,1.38,6.06,2.63,6.13s3.28-3.36,2.62-6.42c-.71-3.33-4.43-5.64-5.54-5C3179.13,2687.55,3179.59,2689.6,3180.21,2692.31Z"/>
		<path class="cls-15" d="M2989.71,2573.89c-.19,4.64,1.65,7.28,0,8.75-1.47,1.3-4.64.77-6.42-.88s-1.82-4.22-1.76-6.71c0-1.3.35-13.19,7.88-16.05,1.35-.51,4.25-1.24,5.26,0C2996.36,2561.1,2990,2565.65,2989.71,2573.89Z"/>
		<path class="cls-15" d="M3002.55,2547c1.55.36,3.17-.93,6.42-3.5,2.86-2.28,4.29-3.41,4.08-4.38-.4-1.81-5.55-2.65-9.63-1.46-1.54.45-3.68,1.08-4.38,2.92C2998.12,2543.05,3000.14,2546.49,3002.55,2547Z"/>
		<path class="cls-15" d="M3069,2755.22c1.56.36,3.18-.93,6.42-3.5,2.86-2.27,4.3-3.41,4.09-4.38-.4-1.81-5.55-2.65-9.63-1.46-1.54.45-3.68,1.08-4.38,2.92C3064.62,2751.23,3066.64,2754.67,3069,2755.22Z"/>
		<path class="cls-15" d="M3008.09,2524c4.26-1.46,4.68-2.31,7.59-3.21,4.1-1.25,5.94-.38,6.71-1.75s-.32-4-2-5.25c-3.73-2.65-9.86,1.32-10.51,1.75-4.42,2.94-7.16,8.22-6.13,9.34C3004.14,2525.33,3005.46,2524.89,3008.09,2524Z"/>
		<path class="cls-15" d="M3067.45,2671.88c4.26-1.46,4.69-2.31,7.59-3.21,4.1-1.25,5.95-.38,6.71-1.75s-.31-4-2-5.25c-3.72-2.65-9.86,1.32-10.51,1.75-4.42,2.94-7.15,8.22-6.12,9.34C3063.51,2673.23,3064.83,2672.79,3067.45,2671.88Z"/>
		<path class="cls-15" d="M2961.11,2564.26c.85,1.51-4.6,4-5.84,10.21-.77,3.85.69,6.17-.58,7-1.55,1-5.7-1.13-7-4.37-1.69-4.22,1.8-9.39,5.55-11.68C2956.27,2563.57,2960.42,2563,2961.11,2564.26Z"/>
		<path class="cls-15" d="M2975.41,2611.82c1.21,2.49,3.26,3.66,6.12,5.25,5.2,2.89,12,4.74,12.84,3.21.66-1.19-3.19-2.85-4.08-7.29-1-4.76,2.22-9.09,1.75-9.34-.64-.33-4.91,8.54-7.59,7.88-1.34-.33-1.09-2.75-3.79-6.42-1.2-1.63-2.8-3.8-4.09-3.5C2974.72,2602,2973.37,2607.66,2975.41,2611.82Z"/>
		<path class="cls-15" d="M2984.77,2649.21c2.82,4.43-1,8.79,1.68,12.75,2.11,3.1,6.2,3,6.06,3.76-.17,1-6.72,2.37-11.29-1-4.21-3.14-4.34-8.52-4.39-10.45,0-.54-.12-7.32,2.72-8.16C2981.23,2645.58,2983.56,2647.29,2984.77,2649.21Z"/>
		<path class="cls-15" d="M3024.73,2770.38c2.82,4.44-1,8.79,1.68,12.76,2.11,3.1,6.2,3,6.06,3.76-.17,1-6.72,2.36-11.29-1.05-4.21-3.13-4.34-8.52-4.39-10.45,0-.54-.12-7.32,2.72-8.15C3021.19,2766.75,3023.52,2768.46,3024.73,2770.38Z"/>
		<path class="cls-15" d="M2956.82,2717.91c1.71-2.76,6.67-3.72,9.61-2.09,2.06,1.13,1.65,2.71,4,4,2.92,1.58,5.23,0,6.48,1.46,1.1,1.32.76,4.34-.84,5.65-3.11,2.54-9.26-2.84-11.71-.63s2,9.57-.21,11.08c-1.21.84-4-.47-5.43-2.3s-.95-3.14-1.47-8.78C2956.67,2720.1,2955.91,2719.37,2956.82,2717.91Z"/>
		<path class="cls-15" d="M2981.07,2739.86c1.67-1.55,6.81,1.36,9.62,3.56,1.88,1.47,5.57,4.86,4.81,6.27s-6.35-.12-8.79-1.05c-2.12-.81-3.85-1.5-5-3.34C2980.66,2743.65,2980,2740.89,2981.07,2739.86Z"/>
		<path class="cls-15" d="M2940.09,2627.58c-.57,5.29,2.65,8.43,1.25,9.83-1.12,1.13-4.13,0-5.85-1-3.57-2.23-6.86-7.71-4.6-12.12,2.44-4.77,10-5.58,11.29-3.77C2943,2621.69,2940.55,2623.31,2940.09,2627.58Z"/>
		<path class="cls-15" d="M2952.22,2598.1c-3.58,2.62-2.53,11.08.2,12.13a3.3,3.3,0,0,0,3.77-1.88c.38-1.23-.88-1.84-1.26-3.77-.67-3.38,2.39-5.72,1.47-6.9C2955.76,2596.87,2953.59,2597.1,2952.22,2598.1Z"/>
		<path class="cls-15" d="M2975.79,2765.77c-3.57,2.62-2.53,11.08.21,12.13a3.28,3.28,0,0,0,3.76-1.88c.39-1.23-.87-1.84-1.25-3.77-.67-3.38,2.38-5.72,1.46-6.9C2979.33,2764.54,2977.16,2764.77,2975.79,2765.77Z"/>
		<path class="cls-15" d="M3101.37,2526.7c-1.65.7-1.37,9.52,3,11.81,2.52,1.34,4.2-.72,11.45-1.11,5.43-.29,8.06.67,8.49-.36.49-1.2-2.26-4.29-5.54-4.8s-4.32,1.9-7.39,1.84C3105.8,2534,3103.05,2526,3101.37,2526.7Z"/>
		<path class="cls-15" d="M3070.38,2771.49c-1.65.7-1.37,9.52,3,11.81,2.52,1.34,4.2-.72,11.44-1.1,5.43-.3,8.07.67,8.5-.37.49-1.2-2.27-4.29-5.54-4.8s-4.32,1.9-7.39,1.84C3074.81,2778.77,3072.05,2770.78,3070.38,2771.49Z"/>
		<path class="cls-3" d="M2652.61,2383.75c-7.43,27.21-19.35,54.23-35.34,80.57-.9,1.49-1.88,3.24-2.86,4.66-25.67,2.91-52.83,5.47-78.55,8q-7.09.72-14.18,1.4a5456.7,5456.7,0,0,1-1030.14,1.7c-6.35-.59-12.69-1.18-19-1.81h0q-45.15-4.35-90.2-9.49c-1.86-1.88-3.69-3.78-5.48-5.68-15.61-26-27.3-52.57-34.61-79.36-9-33.15,14.9-60.91,47.75-56.24a4319.85,4319.85,0,0,0,1214.9,0C2637.71,2322.84,2661.64,2350.6,2652.61,2383.75Z"/>
		<path class="cls-2" d="M1473.76,2478.4l-1.24-.12h0q-45.16-4.35-90.21-9.49c-1.86-1.88-3.68-3.78-5.48-5.68-15.61-26-27.29-52.57-34.61-79.36-9-33.15,14.9-60.91,47.76-56.24q10.71,1.51,21.42,3a66.63,66.63,0,0,0,1.92,15.9C1424.21,2391.45,1444.85,2436,1473.76,2478.4Z"/>
		<path class="cls-2" d="M2652.61,2383.75c-7.42,27.21-19.35,54.23-35.34,80.57-.88,1.49-1.4,3.16-2.86,4.66-18.56,2.11-38.6,3.94-57.19,5.86,25.72-42.05,44.25-86,54.37-130.39a74.2,74.2,0,0,0,1.91-17.44C2641.75,2327.88,2660.83,2353.58,2652.61,2383.75Z"/>
		<path class="cls-4" d="M1390.82,2108.61c0,3.67-23.81,15.25-36.41,20.62,4.23-2.41,6.58-4.54,6.58-6.6v0c-.18-20.61-111.76-76.15-111.93-275.54v-.48c0-1.83,0-3.66,0-5.48v-.52q0-3,.1-5.95C1259.43,2012.06,1390.65,2089,1390.82,2108.61Z"/>
		<path class="cls-4" d="M2644.33,2128.38c-12.95-5.65-34.48-16.28-34.45-19.77.16-18.89,121.63-90.8,139.95-254.23-2.45,199.63-111.6,244.95-111.4,268.37C2638.45,2124.73,2640.55,2126.54,2644.33,2128.38Z"/>
	</g>
</svg>