<svg
	xmlns="http://www.w3.org/2000/svg"
	xmlns:xlink="http://www.w3.org/1999/xlink" viewBox="0 0 4000 4000">
	<defs>
		<style>.cls-1{fill:none;}.cls-2{fill:#231f20;}.cls-3{fill:#446593;}.cls-3,.cls-9{stroke:#333;}.cls-10,.cls-3,.cls-9{stroke-miterlimit:10;}.cls-10,.cls-3,.cls-6,.cls-9{stroke-width:5px;}.cls-4,.cls-7{opacity:0.3;}.cls-5,.cls-7{fill:url(#USGS_21_Intricate_Surface);}.cls-10,.cls-6{stroke:#000;}.cls-6{stroke-linecap:round;stroke-linejoin:round;opacity:0.15;}.cls-8{opacity:0.13;}.cls-9{fill:#755841;}.cls-10,.cls-11{opacity:0.1;}</style>
		<pattern id="USGS_21_Intricate_Surface" data-name="USGS 21 Intricate Surface" width="54" height="54" patternTransform="translate(47.31 -35.27)" patternUnits="userSpaceOnUse" viewBox="0 0 54 54">
			<rect class="cls-1" width="54" height="54"/>
			<path class="cls-2" d="M22.58,55.48c-.76.5-1.32,4.69-2.07,5.25-.29.22-.75.69-.75.94,0,.5-.27.44-.27.94,0,1-.74,2.31-2.11,2-.37-.08-.67-1,1.37-2.15.22-.13,0-.91.14-1.34,2-5.28,3.87-9.6,4.44-8.28Z"/>
			<path class="cls-2" d="M28.33,56.49a3.85,3.85,0,0,1-.44-1.24l-3.28.67c-.9-1,1.11-1.39,2.49-2.05a24,24,0,0,1,2.7-1.42C29.62,53.55,28.65,55.17,28.33,56.49Z"/>
			<path class="cls-2" d="M48.75,59.06A1,1,0,0,1,48,60.47c-.87.13-2,.41-2,.85a3.32,3.32,0,0,1-2.47,3,14.9,14.9,0,0,1,5.17-5.37c.24-.17-.05-.94.15-1.34.65-1.33,2.65.12,2.84-2.29,0-.24-.41-.5-.66-.75,2.11.6,1.86-2.13,3.75-2.25v1.5a3.65,3.65,0,0,0-2.26.74C50.18,55.69,52.58,58.6,48.75,59.06Z"/>
			<path class="cls-2" d="M3.94,60.56c-.35-2,2.65-5.84,3.56-7.5a1.83,1.83,0,0,1,.25,1.69c-.38,2-2.63,3.29-2.61,5.85-.57.94-.5,1.56-2.14,1.46Z"/>
			<path class="cls-2" d="M11.44,55.31a3.35,3.35,0,0,0-.75-2.25,1,1,0,0,1,1.39.76A3.51,3.51,0,0,1,11.44,55.31Z"/>
			<path class="cls-2" d="M2.25,55.12C.46,54.89,2,53.54,1.5,52.88,3.69,53,.93,54.73,2.25,55.12Z"/>
			<path class="cls-2" d="M13.6,56.2c1.65-1.24,2.27-4.91,4.15-5.7-1.52,1.15-1.67,4.89-2.88,6.19-2.32,2.49-5.58,3.82-7.29,6.92-.62,1.12.7,2.71-.83,3.7-.26-2.43-.23-5,1.66-6.55S11.61,57.69,13.6,56.2Z"/>
			<path class="cls-2" d="M36.5,55.75c-.44.49-1.18-.08-1.32-.68-.23-1-1.2-2.6-.08-3a3.77,3.77,0,0,0,3,.75C35.52,52.8,37.22,55,36.5,55.75Z"/>
			<path class="cls-2" d="M44,56.45c.16.3.75-.1,1-.45-1.06-.61.11-2.17-1.2-2.39-.48-.09-1,.48-1.72.38C42.65,55.09,43.36,55.32,44,56.45Z"/>
			<path class="cls-2" d="M-5.25,59.06A1,1,0,0,1-6,60.47c-.87.13-2,.41-2,.85a3.32,3.32,0,0,1-2.47,3,14.9,14.9,0,0,1,5.17-5.37c.24-.17,0-.94.15-1.34.65-1.33,2.65.12,2.84-2.29,0-.24-.41-.5-.66-.75,2.11.6,1.86-2.13,3.75-2.25v1.5a3.65,3.65,0,0,0-2.26.74C-3.82,55.69-1.42,58.6-5.25,59.06Z"/>
			<path class="cls-2" d="M53.27,43.18c.83-.31,1.72.69,2.13.49,2.15-1,2-3.56,4.68-1.39,0,0,.61-.43.57-.64-.12-.76-.91-1.41-.6-2.25.21-.58.8-.7,1.41-.9,1.86-.62-.47-2.49,2.19-3.82.3-.15.33-1.41,0-2-.79-1.26-2.34-.79-3.63-.82a3.59,3.59,0,0,0,3-1.5l-.75,1.5,3,1.5c-.5.25-1.23.4-1.38.79-.35.87.15,2.08-.26,2.89-.1.2-1-.1-1.26.15-1.22,1.43-.6,4-1.83,4.85-2,1.41-6.05.95-7,4.14-.17.56,1.14,1.27,2,1.32s1.85-.67,2.24-2.14a2,2,0,0,0,.81,2.09c1.47.57,1.36-2.45,2.9-2a1.39,1.39,0,0,1,.66,1.33c-.12.38-.87.71-1.37.71-.25,0-.59-.62-.71-.56-1.53.66-3.58.47-4.47,2.18a3.36,3.36,0,0,0-.07,1.46c-.82,0-2.15.29-2.06-.73s1-2,.46-3c-.21-.41-.9-.55-1.4-.81Z"/>
			<path class="cls-2" d="M54.75,34.12c-1.59.18-.68-.9-.75-1.5Q54.38,33.39,54.75,34.12Z"/>
			<path class="cls-2" d="M54.38,9.38c-.11,2.44-.18,1.64-2.63,2.43.5-.25,2-.94,2.1-1.32.24-.78-.08-1.13.32-1.83-.18-.75-1.48-.75-.79-1.78,1-1.53.21-3.75,2.13-4.54.43-.18.24.47.74.47C56.25,4.88,54.47,7.16,54.38,9.38Z"/>
			<path class="cls-2" d="M52.5,37.31c.52-1.46,1.83-1.34,3-1.5C54.77,36.85,53.6,37,52.5,37.31Z"/>
			<path class="cls-2" d="M5.62,29.06a2.28,2.28,0,0,1-.74,0,5,5,0,0,1,1.5-2.25c.26.5.75,1.08.63,1.46S6.16,28.89,5.62,29.06Z"/>
			<path class="cls-2" d="M22.58,1.48c-.76.5-1.32,4.69-2.07,5.25-.29.22-.75.69-.75.94,0,.5-.27.44-.27.94,0,1-.74,2.31-2.11,2-.37-.07-.67-1,1.37-2.14.22-.13,0-.91.14-1.34,2-5.28,3.87-9.6,4.44-8.28Z"/>
			<path class="cls-2" d="M14.26,10c-.71-.25-1.69-1.08-1.59-1.33.92-2.32,1.82-3.3,2.75-3.34s-1.21,1.44-1.7,2.47,1.94,2.48,1.52,3.09S14.78,10.57,14.26,10Z"/>
			<path class="cls-2" d="M12,11.06c-.58,1.92-.39,2.11-3,3,.76-.23.56.06.75-2.25C9.77,11.52,11.5,11.31,12,11.06Z"/>
			<path class="cls-2" d="M9.73,20.06c-.2.52-.45,1.32-.74,1.34-2,.19-2.41,1.72-3,3.16,1.3.36,2.23,1.67,3.75,1.5-.7.41-1.49,1.14-2.17.64-.25-.18,0-1.18-.13-1.24-2.87-1-2.15-3.13-.58-4.51.16-.15,1,.63,1.3.47,1.26-.71-.48-4.54.83-3.61.65.7,1.68,1.46,2.83-.12.5-.68.17-1.88.17-2.88.38-.75,2.06-.32,2.1.76C14.19,18.15,10.64,17.76,9.73,20.06Z"/>
			<path class="cls-2" d="M18.74,17.8c-.23.29-.49.68-.74.68s-.5-.42-.75-.67c.5-.25,1.32-.47,1.34-.76.12-1.46-.23-3.15-2.09-3.74C19.54,12.4,20.38,15.74,18.74,17.8Z"/>
			<path class="cls-2" d="M21.92,19.33c.31-3.9-.54-6,3.58-4.52.94,1.31-1.82.21-2.12.82-.15.31,1.68,1,1.56,1.43s-2.11.39-2.35.81c-.43.75.25,1.5.66,2.19C22.75,19.81,21.91,19.54,21.92,19.33Z"/>
			<path class="cls-2" d="M26.21,20c-.13.05-.46-.4-.71-.65.8-.42,1.3-2.11,2.08-1.33S27,20.25,26.21,20Z"/>
			<path class="cls-2" d="M15.5,26.75c-.44.49-1.18-.08-1.32-.68-.23-1-1.2-2.6-.08-3a3.77,3.77,0,0,0,3,.75C14.52,23.8,16.22,26,15.5,26.75Z"/>
			<path class="cls-2" d="M31,16.12c2.79-.37,3-2.78,4.58-4.22.27-.26,1,.08,1.35-.17a2.84,2.84,0,0,0,.82-2.92C39,10.47,40.38,8.19,41.3,9c1.68,1.53,1.51,4,4,5-.39,1.91-2.09,2.94-3,4.5.81-2.62,2.84-5.43-.75-6.75.25-.25.67-.5.67-.75a1.69,1.69,0,0,0-.72-1.38,2.24,2.24,0,0,0-2.84.69c-1,1.78-1.51,1.92-2.89,3.18-.67.62,0,2.41-1,3.51-.25-.25-.63-.83-.73-.65-1,1.78-2.27,1.59-2.64.47Z"/>
			<path class="cls-2" d="M30.43,12.32h0c-.19-.15-1.25.41-1.27.69-.08,1.62-.38,3.27-2.41,3,2.41-2,3.1-4.92,4.41-7.55.44-.89-2.66-3.14-1.41-3.89L32,5.5c.65-.7,1.42-1.16,3,0-1.07,0-2.33-.2-2.89.81C31.18,8,32,8.89,31.84,10.74c0,.29-1.07.42-1.22.8A2.68,2.68,0,0,0,30.43,12.32Z"/>
			<path class="cls-2" d="M28.33,2.49a3.85,3.85,0,0,1-.44-1.24l-3.28.67c-.9-1,1.11-1.39,2.49-2a24,24,0,0,1,2.7-1.42C29.62-.45,28.65,1.17,28.33,2.49Z"/>
			<path class="cls-2" d="M38.25,41.06c.48-1.06,1.43-.69,2.25-.75C40,41.25,39.14,41.23,38.25,41.06Z"/>
			<path class="cls-2" d="M47.57,2.07c-.46,4.31-.57,0-.82,0,.71-.28,1.75-.24,1.5-1.5A4.83,4.83,0,0,0,47.57,2.07Z"/>
			<path class="cls-2" d="M48.75,5.06A1,1,0,0,1,48,6.47c-.87.13-2,.41-2,.85a3.32,3.32,0,0,1-2.47,3,14.9,14.9,0,0,1,5.17-5.37c.24-.17-.05-.94.15-1.34.65-1.33,2.65.12,2.84-2.29,0-.24-.41-.5-.66-.75,2.11.6,1.86-2.13,3.75-2.25v1.5a3.65,3.65,0,0,0-2.26.74C50.18,1.69,52.58,4.6,48.75,5.06Z"/>
			<path class="cls-2" d="M50.94,11.05c-.2.91-.59,2-1.47,2.12-.69.13-1.47,1.07-2.22-1.36,2.33.75,3-1.21,3.75-3A9.85,9.85,0,0,1,50.94,11.05Z"/>
			<path class="cls-2" d="M47.32,18.6a3.35,3.35,0,0,0-.07,1.46,2.41,2.41,0,0,1-.58-2.87c.28-.38,1.33-.13,2.08-.13A6.9,6.9,0,0,0,47.32,18.6Z"/>
			<path class="cls-2" d="M34.75,22.31c0-.49.26-1.24.06-1.36-.77-.48-1.91-.32-2.9-.42.27-.23.51-.55.83-.62.86-.22,1.72.86,2,.69,2-1.12,4.17-4.7,5.79-6.33.23.28-1,2.61-1,2.67C37.74,19.18,36.48,20.15,34.75,22.31Z"/>
			<path class="cls-2" d="M38.78,24.23c-.66-.43-2-.4-1.34-1.47,1.28-2.15,4.12-2.17,5.87-3.82.44,2.11,3.16,1.61,4.42,3.07.25.3,0,.93.12,1.42.18.77.21,1.76,1.46,1.51l-.75.75c-1.33-2-1.62.21-3,0,.5-.25,1.26-.42,1.37-.79a3.37,3.37,0,0,0-.65-3.67c-.41-.37-1.11-.81-1.39-.65-.9.5-1,1.74-.83,2.86-1.22-1.13-1.78-3.79-3.62-2.78a10.4,10.4,0,0,0-2.15,2.22c-1.09,1.33,2.43.94,2,2.81A9.62,9.62,0,0,0,38.78,24.23Z"/>
			<path class="cls-2" d="M31.85,24.51c.14.18,1-.3,1.25-.09.46.47,1.83,1.12,2,1.86.45-.35,1.18-.67,1.18-1,0-1-2.46-1.16-3.88-1.65a2.09,2.09,0,0,1-1.22-1.94C31.35,22.64,31.29,23.8,31.85,24.51Z"/>
			<path class="cls-2" d="M28.41,24.09c.49,1.61-.85,1.1-1.41.16-.38-.94-.92-3.74,1.5-3.85.24,0,.5.41.75.66C28.72,21.51,26.7,18.5,28.41,24.09Z"/>
			<path class="cls-2" d="M3.94,6.56C3.59,4.61,6.59.72,7.5-.94A1.83,1.83,0,0,1,7.75.75C7.37,2.73,5.12,4,5.14,6.6c-.57.94-.5,1.56-2.14,1.46Z"/>
			<path class="cls-2" d="M1.25,14.38c2.29-1.27,0-1.4,2.69-2.57,1.31.38,1.6,2,1.68,3.38,0,.32-.37,1.37-.37,1.87-.25-.5-.5-1-.75-1.5s-.45-1.78-.62-1.81A3.91,3.91,0,0,0,1.25,14.38Z"/>
			<path class="cls-2" d="M17.12,2.38V.88a3.3,3.3,0,0,0,2.26.74Z"/>
			<path class="cls-2" d="M3.84,21.41c.5,1.6-.84,1.09-1.4.15-.38-.94-.92-3.74,1.5-3.85.24,0,.5.41.75.67C4.16,18.83,2.13,15.82,3.84,21.41Z"/>
			<path class="cls-2" d="M-.73,43.18c.83-.31,1.72.69,2.13.49,2.15-1,2-3.56,4.68-1.39,0,0,.61-.43.57-.64-.12-.76-.91-1.41-.6-2.25.21-.58.8-.7,1.41-.9C9.32,37.87,7,36,9.65,34.67c.3-.15.33-1.41,0-2-.79-1.26-2.34-.79-3.63-.82a3.59,3.59,0,0,0,3-1.5l-.75,1.5,3,1.5c-.5.25-1.23.4-1.38.79-.35.87.15,2.08-.26,2.89-.1.2-1-.1-1.26.15-1.22,1.43-.6,4-1.83,4.85-2,1.41-6,.95-7,4.14-.17.56,1.14,1.27,2,1.32s1.85-.67,2.24-2.14a2,2,0,0,0,.81,2.09C6,48,5.92,45,7.46,45.5a1.39,1.39,0,0,1,.66,1.33c-.12.38-.87.71-1.37.71-.25,0-.59-.62-.71-.56-1.53.66-3.58.47-4.47,2.18a3.36,3.36,0,0,0-.07,1.46c-.82,0-2.15.29-2.06-.73s1-2,.46-3c-.21-.41-.9-.55-1.4-.81Z"/>
			<path class="cls-2" d="M10.21,50.63c.38-.14.54-.88.79-1.38l1.5.75c1.33-3.25,3.59-7.42,7.5-7.5V44a2.08,2.08,0,0,0-2.13.82c-.69,1.18,1.55,1.87-.12,3.68,0-1.3.41-3.13-.83-3.5-1.49-.45-2.48,1.86-2.17,3.5-.5,0-1.27-.13-1.36.07-.92,2-3.3,2.38-3.89,4.43-1.23-1.35-3.39-1.65-3.75-3.75C7.58,48.76,8.58,51.22,10.21,50.63Z"/>
			<path class="cls-2" d="M.75,34.12c-1.59.18-.68-.9-.75-1.5Q.38,33.39.75,34.12Z"/>
			<path class="cls-2" d="M4.62,34a2.7,2.7,0,0,1,.63,2.34c-.5-.26-1.34-.52-1.33-.75C4,34,2.41,32.77,3,31.12,4,31.86,4,33.16,4.62,34Z"/>
			<path class="cls-2" d="M.75,29.62c-.21-1.66,1.11-.27,1.5-.74Z"/>
			<path class="cls-2" d="M14.33,31.13c-.13,2.54,1.82,4,3.67,5.25A3.26,3.26,0,0,0,15.74,35c-.23,0-.49.57-.74.57-.5,0-1.31-.38-1.34-.68-.14-1.45-.78-2.94.45-4.59.15-.21-.36-.89-.61-1.39l-1.5.74-1.5-3c2.28.33,2.59,3,4.5,3.76C14.75,30.63,14.34,30.87,14.33,31.13Z"/>
			<path class="cls-2" d="M19.14,34.59c1.28.13,1.25-1,1.26-1.64s-.45-1,1.18-2.58c.32-.3.38-1.38.72-2.11l.82.67c-.48.3-1.16.51-1.32.93-.24.64.32,1.67,0,2.09C21.2,32.64,20,33,20,34.52c0,.23.66.52.62.63a5.94,5.94,0,0,0-.35,3.1C18.71,37.38,19.24,35.89,19.14,34.59Z"/>
			<path class="cls-2" d="M26.47,31.78c-1.25,1.56-2.87-.09-3.78,1.9,1.31-.46.53.35,2.95.78-.05-.55-.29-1.4-.09-1.52,2.43-1.4,1.17-4.49,3-6.38l-1-.23a9,9,0,0,1-.92,3.07C24.91,30.53,27.55,30.43,26.47,31.78Z"/>
			<path class="cls-2" d="M21.15,40.69c-1.82-1.47-1.77.4-3.15.19.25-.51.5-1,.75-1.5,1.28,1.65,2.58-.61,3.57.21C23.12,40.24,21.38,40.88,21.15,40.69Z"/>
			<path class="cls-2" d="M22.63,44.71c0,.28-1,.4-1.24.81-1,2.15-.33,2.76.74,4.43a1,1,0,0,1-1.41-.76c-.21-1.27.59-1.16-.72-2.44-.38-.37,1.33-1.34,1.65-2.18.62-1.61,2-2.1,2.79-3.51.29-.49,1.28.17,1.2.63C25.35,43.38,22.81,41.12,22.63,44.71Z"/>
			<path class="cls-2" d="M23,8c-.41-.29.31-.92.89-1.19.65,1.51,3.21.43,3.24,2.14,0,.63-.94,1.19-1,2.08C24.74,10,24.56,9.07,23,8Z"/>
			<path class="cls-2" d="M29.25,40.5c.75,1.64-1.22,1-1.51,1.83C26.67,40.42,29.61,41.83,29.25,40.5Z"/>
			<path class="cls-2" d="M31.09,41.29,32.6,42c.24-.51.75-1.12.6-1.45-1-2.15.3-4.38.95-6.37a1.59,1.59,0,0,0,2.17-.82c.93-1.8,2.85-4.58,3-6.68-.55.1-1.41.11-1.48.36C37,30.26,34.33,35.2,30.75,36c-.12,0-.21.62-.11.93.27.84,1.47.86,1.75,1.42C32.93,39.42,31.79,40.38,31.09,41.29Z"/>
			<path class="cls-2" d="M29.37,31.88c.12.49-.31,1.11.24,1.64.88-2.17.92-4.64,3.28-6.27-.95-.67-1.59.12-2.32.49C31.71,29.5,28.9,30.06,29.37,31.88Z"/>
			<path class="cls-2" d="M33.81,46.91c-.59,1.15,1.46,2.89,2.13,2.72a2,2,0,0,0,1.56-2.75c3.07.15,6.8,3.27,4.31,5.82-.52.53-1.85-.17-2.81-.58a2.74,2.74,0,0,0,2.11-3.68A2.17,2.17,0,0,0,39,47.6c-2,.15-1.13,2-2.28,3a2.28,2.28,0,0,1-1.46.69c-.88-.07-1.55-.89-2.33-1.27-.31-.15-1.1.25-1.34.67a1.53,1.53,0,0,0,.66,2.2c-1.26.25-1.47-.91-1.34-1.47.32-1.37,2.83-1.19,2.77-3,0-1-.71-1.86-2.18-2.26,3.29.71,2.51-2.94,4.86-3.74,1.49-.51.78.82.64,1.37C36.62,45.2,34.48,45.6,33.81,46.91Z"/>
			<path class="cls-2" d="M38.76,37.67a6.71,6.71,0,0,0-1.51.71c1.21-.85,0-2.11,2.14-3.22.5-.26.29-1.51-.64-2l.75-.74c-.34,1.83.4,3.51.75,5.24A5.7,5.7,0,0,0,38.76,37.67Z"/>
			<path class="cls-2" d="M44.17,34.38a4.14,4.14,0,0,1-.67,1.5c-.25-.26-.7-.6-.65-.7a6,6,0,0,0,.65-3.06A7.77,7.77,0,0,1,44.17,34.38Z"/>
			<path class="cls-2" d="M43.12,28.67c-1.28.32-1.38-.84-1.38-1.48s.82-1.14,1.3-.66,0,1.7,2.34,1.41C44.62,28.19,43.91,28.47,43.12,28.67Z"/>
			<path class="cls-2" d="M47.12,29.13c-.71.8-1,2.95-2,2S46.24,29.76,47.12,29.13Z"/>
			<path class="cls-2" d="M47.08,49.09c-.22.94-.5,2.76-2,2.14-.18-.07-.06-.85-.06-1.35,1.27.06,2.73-.33,2.83-2.26,0-.23-1.11-.42-1.18-.77-.15-.69-1.08-1.47,1.35-2.23C47,46,47.44,47.59,47.08,49.09Z"/>
			<path class="cls-2" d="M.38,9.38C.27,11.82.2,11-2.25,11.81c.5-.25,2-.94,2.1-1.32.24-.78-.08-1.13.32-1.83C0,7.91-1.31,7.91-.62,6.88c1-1.53.21-3.75,2.13-4.54.43-.18.24.47.74.47C2.25,4.88.47,7.16.38,9.38Z"/>
			<path class="cls-2" d="M48.54,34.16c.31-3.89-.54-6,3.58-4.51.94,1.31-1.81.21-2.11.82-.15.3,1.67,1.05,1.55,1.43s-2.11.39-2.35.8c-.43.75.26,1.5.66,2.2C49.37,34.65,48.53,34.38,48.54,34.16Z"/>
			<path class="cls-2" d="M46.88,38.62c-1.3-.18-1.34.85-1.42,1.54,0,.23.61.58.56.69-.73,1.56-2.4.54-3.65.8.5,0,1.21.16,1.38-.08,1-1.38,2.84-3.57.87-5.17,1,1.23,3.16.41,3.75,2.25A9.25,9.25,0,0,1,46.88,38.62Z"/>
			<path class="cls-2" d="M43.3,45.65c-1.53.06-3.27.56-4.88.18a3.64,3.64,0,0,1,1.32-.75c.5,0,.51.75.89.63s.53-1.2.8-1.22c1.59-.08,3-.77,4.49-.91-.25.5-.39,1.2-.8,1.4A4.21,4.21,0,0,1,43.3,45.65Z"/>
			<path class="cls-2" d="M50.25,42c-.21.45-1-.14-1.33-.67,1.37-.9-.14-3.23,1.54-3.57.62-.12,1.33.72,2.21.57C52,40,51,40.32,50.25,42Z"/>
			<path class="cls-2" d="M21.5,22.73c-1.29-.19-1.34.84-1.41,1.53,0,.22.61.58.56.69-.73,1.55-2.4.54-3.65.8.5,0,1.21.16,1.38-.08.95-1.38,2.83-3.57.87-5.17,1,1.23,3.15.41,3.75,2.25A10.73,10.73,0,0,1,21.5,22.73Z"/>
			<path class="cls-2" d="M16.5,30.75c.52-1.46,1.83-1.35,3-1.5C18.77,30.29,17.6,30.46,16.5,30.75Z"/>
			<path class="cls-2" d="M2.39,26.71c-.12.05-.45-.4-.7-.65.8-.42,1.3-2.11,2.07-1.33S3.19,27,2.39,26.71Z"/>
			<path class="cls-2" d="M2.25,39c.48-1.06,1.43-.7,2.25-.75C4,39.18,3.14,39.16,2.25,39Z"/>
			<path class="cls-2" d="M27.35,38.61c-.47.46-.44.61-.74.72-.84.3-1.54-.3-2.23-.71,2.57.55,3.59-1.54,3-3.74.5.25,1.33.49,1.33.74C28.71,36.63,27.94,37.62,27.35,38.61Z"/>
			<path class="cls-2" d="M40.24,6.28c-.46.47-.44.61-.74.72-.84.3-1.53-.3-2.23-.7,2.57.54,3.59-1.55,3-3.75.5.25,1.33.5,1.33.75C41.6,4.3,40.83,5.3,40.24,6.28Z"/>
			<path class="cls-2" d="M15.75,39.75A3.35,3.35,0,0,0,15,37.5a1,1,0,0,1,1.4.76A3.58,3.58,0,0,1,15.75,39.75Z"/>
			<path class="cls-2" d="M11.44,1.31a3.35,3.35,0,0,0-.75-2.25,1,1,0,0,1,1.39.76A3.51,3.51,0,0,1,11.44,1.31Z"/>
			<path class="cls-2" d="M-1.5,37.31C-1,35.85.33,36,1.5,35.81.77,36.85-.4,37-1.5,37.31Z"/>
			<path class="cls-2" d="M2.25,1.12C.46.89,2-.46,1.5-1.12,3.69-1,.93.73,2.25,1.12Z"/>
			<path class="cls-2" d="M54.6,22.29c-.14.87-1.78,1.1-1.83,1.55-.22,1.86-.91,2.24-1.77,3.72-.25-.25-.67-.49-.67-.75,0-1,1.48-1.57,1.77-2.39.89-2.45.71-6.23,1.28-7.17.16.09,1.36-1.25,1.74-1.63Z"/>
			<path class="cls-2" d="M13.6,2.2C15.25,1,15.87-2.71,17.75-3.5c-1.52,1.15-1.67,4.89-2.88,6.19C12.55,5.18,9.29,6.51,7.58,9.61c-.62,1.12.7,2.71-.83,3.7-.26-2.43-.23-5,1.66-6.55S11.61,3.69,13.6,2.2Z"/>
			<path class="cls-2" d="M34,1.26c-.7.79-1,3-2,2S33.12,1.89,34,1.26Z"/>
			<path class="cls-2" d="M36.5,1.75c-.44.49-1.18-.08-1.32-.68-.23-1-1.2-2.6-.08-3a3.77,3.77,0,0,0,3,.75C35.52-1.2,37.22,1,36.5,1.75Z"/>
			<path class="cls-2" d="M44,2.45c.16.3.75-.1,1-.45-1.06-.61.11-2.17-1.2-2.39-.48-.09-1,.48-1.72.38C42.65,1.09,43.36,1.32,44,2.45Z"/>
			<path class="cls-2" d="M20.75,13c.52-1.46,1.83-1.35,3-1.5C23,12.54,21.85,12.71,20.75,13Z"/>
			<path class="cls-2" d="M51,15.75c.48-1.06,1.43-.7,2.25-.75C52.73,15.93,51.89,15.91,51,15.75Z"/>
			<path class="cls-2" d="M55.5,50.62c-.82,0-2.15.29-2.06-.73s1-2,.46-3c-.21-.41-.9-.55-1.4-.81-.81,2.28-3.32,3.36-3.8,6-.14.76-.51,2.1-1.28,1.34s1.1-1,1.12-1.35c.16-2.91,1.88-4.94,3.78-6.91.38-.38,0-1.65,1-2,.83-.31,1.72.69,2.13.49l-.06.33a3.65,3.65,0,0,0-1.84,2.2c-.17.56,1.14,1.27,2,1.32Z"/>
			<path class="cls-2" d="M26.75,6.5A3.35,3.35,0,0,0,26,4.25,1,1,0,0,1,27.4,5,3.58,3.58,0,0,1,26.75,6.5Z"/>
			<path class="cls-2" d="M24.23,22.91c1.68,0,.11,1.13.52,1.59C24.57,24,24.4,23.44,24.23,22.91Z"/>
			<path class="cls-2" d="M50.25,21.75a3.35,3.35,0,0,0-.75-2.25,1,1,0,0,1,1.4.76A3.58,3.58,0,0,1,50.25,21.75Z"/>
			<path class="cls-2" d="M43.75,7.5a3.26,3.26,0,0,1,1.06-2.12,1,1,0,0,0-1.49.55A3.5,3.5,0,0,0,43.75,7.5Z"/>
			<path class="cls-2" d="M9.26,2.92C10,4.56,8,4,7.75,4.75,6.67,2.84,9.62,4.25,9.26,2.92Z"/>
			<path class="cls-2" d="M35.5,9c-1.59.17-.68-.91-.75-1.5Z"/>
			<path class="cls-2" d="M26,50.35c1.27-.34.9-1.31.69-2-.06-.22-.78-.29-.78-.42.05-1.71,2-1.44,3-2.17-.45.2-1.17.33-1.23.62-.33,1.64-1.19,4.4,1.24,5.09-1.36-.75-3,.87-4.33-.58A10.29,10.29,0,0,1,26,50.35Z"/>
			<path class="cls-2" d="M11.25,24.5c-1.59.17-.68-.91-.75-1.5Z"/>
			<path class="cls-2" d="M13.5,19c.48-1.06,1.43-.7,2.25-.75C15.23,19.18,14.39,19.16,13.5,19Z"/>
			<path class="cls-2" d="M35,30.5c-1.59.17-.68-.91-.75-1.5Z"/>
			<path class="cls-2" d="M30.48,45c.12-.59-.27-1-.6-1.51.58-.14,1.07.13,1.12.51S30.68,44.67,30.48,45Z"/>
			<path class="cls-2" d="M25.07,45.26c-.46,4.3-.57,0-.82,0C25,45,26,45,25.75,43.75A4.73,4.73,0,0,0,25.07,45.26Z"/>
			<path class="cls-2" d="M9.59,39.25c2.5-.76.26-1.37,3.15-2,1.21.64,1.16,2.27,1,3.65,0,.32-.65,1.27-.76,1.76l-.42-1.63c-.15-.55-.07-1.83-.24-1.9A3.88,3.88,0,0,0,9.59,39.25Z"/>
			<path class="cls-2" d="M10.34,45.73c.35,1.27,1.41.8,2,.47s.59-1.27-.06-1.45-1.49.83-2.38-1.34C10,44.19,10.13,45,10.34,45.73Z"/>
			<path class="cls-2" d="M-5.25,5.06A1,1,0,0,1-6,6.47c-.87.13-2,.41-2,.85a3.32,3.32,0,0,1-2.47,3A14.9,14.9,0,0,1-5.33,4.94c.24-.17,0-.94.15-1.34.65-1.33,2.65.12,2.84-2.29,0-.24-.41-.5-.66-.75,2.11.6,1.86-2.13,3.75-2.25v1.5A3.65,3.65,0,0,0-1.51.55C-3.82,1.69-1.42,4.6-5.25,5.06Z"/>
			<path class="cls-2" d="M.6,22.29c-.14.87-1.78,1.1-1.83,1.55-.22,1.86-.91,2.24-1.77,3.72-.25-.25-.67-.49-.67-.75,0-1,1.48-1.57,1.77-2.39C-1,22-1.19,18.19-.62,17.25c.16.09,1.36-1.25,1.74-1.63Z"/>
			<path class="cls-2" d="M1.5,50.62c-.82,0-2.15.29-2.06-.73s1-2,.46-3c-.21-.41-.9-.55-1.4-.81-.81,2.28-3.32,3.36-3.8,6-.14.76-.51,2.1-1.28,1.34s1.1-1,1.12-1.35c.16-2.91,1.88-4.94,3.78-6.91.38-.38-.05-1.65,1-2,.83-.31,1.72.69,2.13.49L1.34,44A3.65,3.65,0,0,0-.5,46.2c-.17.56,1.14,1.27,2,1.32Z"/>
		</pattern>
	</defs>
	<title>pants</title>
	<g id="pants">
		<path class="cls-3" d="M2306.86,3160.54c-.32,1.1-.64,2.2-1,3.29a1.54,1.54,0,0,0,0,.17q-1.05,3.47-2.19,6.9c-.36,1.11-.74,2.21-1.12,3.32q-2.52,7.35-5.44,14.58c-.43,1.06-.86,2.11-1.3,3.17s-.76,1.81-1.15,2.72c-.48,1.11-1,2.23-1.46,3.34s-1,2.23-1.5,3.34-1,2.21-1.54,3.31-.9,1.9-1.36,2.84c-.6,1.26-1.22,2.51-1.85,3.76-.54,1.09-1.1,2.18-1.66,3.27-.45.88-.91,1.75-1.37,2.62-.12.23-.24.45-.35.68l-1.58,2.92c-.56,1-1.13,2.07-1.7,3.09-.48.85-.95,1.7-1.43,2.54-.21.38-.43.75-.65,1.12-.47.83-1,1.65-1.44,2.47s-1.1,1.88-1.67,2.81c-.12.21-.24.41-.37.61-.53.88-1.07,1.77-1.62,2.65s-1.24,2-1.88,3q-.67,1.08-1.38,2.16c-.36.57-.73,1.13-1.1,1.69-.45.71-.92,1.41-1.39,2.11q-2,3-4,5.89t-4.14,5.8c-1.41,1.93-2.83,3.83-4.28,5.73-.72.95-1.45,1.9-2.19,2.83s-1.47,1.88-2.22,2.82-1.49,1.87-2.25,2.79-1.52,1.85-2.29,2.77c-.5.61-1,1.21-1.53,1.82l-1.42,1.68-1.55,1.79-.42.47c-.7.81-1.41,1.61-2.12,2.41s-1.6,1.79-2.41,2.68-1.42,1.56-2.14,2.33l-.71.76c-.58.63-1.18,1.26-1.77,1.89l-.8.84-1.87,1.95c-1,1-1.94,2-2.92,3-.76.77-1.53,1.53-2.3,2.29l-2.6,2.54c-.87.84-1.74,1.68-2.62,2.5s-1.76,1.66-2.65,2.48c-.7.67-1.41,1.31-2.12,2l-.4.35-.5.46-1.8,1.61-.69.62-1,.92-1.05.91c-.85.75-1.71,1.49-2.58,2.23q-3.67,3.13-7.44,6.17l-1.84,1.48-1.86,1.46-.09.08-.06,0,0,0-.5.39c-1.07.85-2.15,1.68-3.24,2.5q-1.89,1.44-3.81,2.86l-.07,0c-1,.75-2,1.49-3.05,2.22l-.88.63-.23.17q-1.86,1.32-3.75,2.63l-1.26.88-2.53,1.72-.28.19c-1.07.72-2.15,1.43-3.23,2.14l-1,.63-.45.29-.84.54-1.8,1.15-.74.47-.09.06-.78.49-.3.18q-1,.63-2,1.23l-.06,0-.3.18-.19.12-.45.28-.46.28-.72.43-.31.19c-.93.56-1.86,1.12-2.8,1.67l0,0-.45.26-1.47.86-1.94,1.12-.33.19c-1,.58-2,1.15-3.06,1.72l-1.22.68-.33.18-.44.23a.39.39,0,0,1-.11.06l-.35.2-.33.18-1.44.78-.72.39-.6.32-.61.32-.7.37-3.05,1.58c-1.3.67-2.6,1.33-3.91,2h0l-2.89,1.42-.62.3-.43.2-2,.95c-.24.11-.47.23-.71.33l-.42.2-.87.4-3.22,1.46-.68.31a2.41,2.41,0,0,1-.33.15c-.65.3-1.31.59-2,.87-1,.43-1.95.86-2.93,1.27l-.05,0-.28.13-.13.05-.06,0a.47.47,0,0,1-.15.06l-1,.41c-.36.15-.72.31-1.08.45l-.81.34-1.23.5-.81.33-1,.41-.61.24-.69.28-1,.4-.14,0c-.64.27-1.3.52-2,.76l-.34.13-.65.25-1.62.61-.86.32c-.66.25-1.32.5-2,.73l-.21.08-.73.26-1.44.52-.77.27-1.6.56-.69.23a5.17,5.17,0,0,1-.51.18l-.18.07-.33.11-1.25.42-2.24.74-.67.22-1.49.48-1.65.53-.3.09-.21.06-.84.26-1.53.46q-.69.22-1.38.42l-1.35.4-.68.2-.68.19-1.06.31c-.36.11-.71.21-1.07.3l-.38.11-1.34.37-.36.1-.83.22-1,.28-.5.13-1.56.41-.26.07-1.25.32-1.22.31-3.11.76-1.85.44-2.65.61-.14,0-.38.08-.61.14-1.42.32-1,.21q-.86.2-1.71.36l-1.42.29-1.57.32-1.36.26-.21,0-.6.12-.67.12-1.22.23c-.56.11-1.13.21-1.69.3-.22.05-.45.09-.67.12l-.13,0-.35.06a2.25,2.25,0,0,1-.36.06l-.63.11-1.95.32-1,.17-.92.15-.18,0-1.06.17-1.23.18-.94.14c-.75.12-1.5.23-2.26.33l-2.85.38-.36.05a1,1,0,0,1-.25,0l-2.89.35-1.94.23-1.54.17-.31,0-.81.09-1.23.12c-1,.1-2.1.21-3.15.3s-2.11.2-3.16.28-2.09.17-3.15.24c-.63.05-1.27.1-1.91.13-1,.07-2,.13-3,.18-.14,0-.28,0-.42,0l-2.91.14q-1.89.09-3.81.15h-.4c-1.15,0-2.3.07-3.46.09s-2.57.05-3.85.06c-3.16,0-6.3,0-9.43-.08-.68,0-1.35,0-2,0s-1.21,0-1.82-.06l-1.85-.07q-3.73-.15-7.46-.41l-1.56-.11-2.6-.2c-1.52-.12-3-.26-4.55-.4l-3.06-.32-.48,0h0l-2-.23-.61-.07-1-.12-.37-.05h-.12l-1.86-.24-.61-.08-.68-.09-.58-.08-.22,0-.76-.11-.77-.11a1,1,0,0,1-.24,0l-.92-.13c-.33,0-.67-.09-1-.15l-.68-.11-.33,0h0l-.73-.11-1.92-.31-.14,0-.25,0-.1,0-.64-.1q-1.31-.21-2.61-.45l-.12,0-.4-.07H1943a1.09,1.09,0,0,1-.26,0l-.33-.06-.13,0-.17,0-.33-.06-.29-.06-.32-.05-.38-.07-.22,0h0l-.19,0h0l-.78-.15-1.66-.32-.45-.09c-.39-.07-.78-.14-1.16-.23l-.2,0-.5-.1-.3-.06-.08,0-.54-.11-.34-.07q-.48-.09-1-.21c-.34-.06-.67-.13-1-.21l-.73-.15h0l-.32-.07-.07,0c-.36-.07-.73-.15-1.09-.24l-.24-.05-.88-.2h0l-.42-.1-.16,0-.3-.07-1.15-.27-1.17-.28c-.26-.05-.51-.11-.77-.18l-.29-.07-.56-.14-1.5-.37-.9-.23c-.36-.08-.71-.17-1.06-.27l-1.33-.34-.29-.08-.14,0h0s0,0,0,0a.79.79,0,0,1-.22-.06l-.17,0-.74-.2-.75-.2-1.17-.32-.51-.14-.7-.2-2.37-.67-2.5-.73-1-.29-.42-.12-1-.32c-.46-.13-.91-.27-1.36-.42l-2.49-.79-1.56-.5-.61-.2-2.11-.7-.14,0-.23-.08,0,0-.19-.06-.31-.11-.27-.09-1.46-.5-.18-.07-.25-.08q-.35-.13-.69-.24l-.34-.12-.54-.19-.29-.11h-.11l-.06,0,0,0-.1,0-.18-.06h0l-.44-.16c-.19-.06-.39-.13-.58-.21q-1.07-.37-2.13-.78l-.65-.25-.16,0-.07,0c-.59-.21-1.17-.43-1.75-.66l-1.3-.49-.19-.07-1.1-.43-.72-.28-2.34-.93-.16-.07-2.77-1.13-.14-.06-2.74-1.15-1.08-.46-1-.45-1.1-.48-.31-.14-.24-.11-1-.43-1-.43-2.23-1-.61-.28-2.91-1.36-2.71-1.3-1.39-.68-1.91-.95-1-.47-.72-.37-.14-.07-1-.5-1.5-.77-.19-.1-.27-.14-.4-.21-.54-.28-.55-.29-.76-.4,0,0-.1,0-.16-.09-.52-.28-.82-.44-1.25-.67-.59-.33-.74-.4-1.93-1.07-.45-.25-.33-.18-.2-.12-.35-.19-.11-.07c-.36-.2-.72-.4-1.07-.61s-.73-.41-1.09-.62l-.1-.06-.49-.28-1.21-.7-1.35-.79-.34-.2-.46-.27-.45-.27-.08,0,0,0-.28-.17h0l-.12-.07-.54-.33,0,0-1.69-1-.13-.08-.24-.15-2.38-1.47-.72-.45-.2-.12-.21-.13c-.12-.08-.25-.15-.37-.24a2.12,2.12,0,0,1-.2-.12l-1-.62-.21-.13-.06,0c-.86-.55-1.72-1.1-2.57-1.66l-.09-.06a.2.2,0,0,1-.08,0l-.18-.12-.61-.4-.14-.09-.1-.07-2.16-1.43-.33-.21-.28-.2,0,0-.09-.06c-.57-.38-1.14-.76-1.7-1.15,0,0,0,0,0,0l-.53-.36-.56-.39-.79-.54-.3-.21-.69-.47,0,0-.09-.06,0,0-.45-.31h0l-.33-.24-.15-.11-1.61-1.13-.84-.6-1.08-.78-1.47-1.06-.06-.05a.88.88,0,0,1-.17-.12l-.09-.06h0l-.09-.07s0,0,0,0h0l-.13-.1a1.33,1.33,0,0,1-.19-.14,1.49,1.49,0,0,1-.2-.15l-.5-.37-.41-.29-.17-.12-.28-.22a.35.35,0,0,1-.1-.08,4,4,0,0,1-.35-.26l-.23-.16-.11-.09-.06,0-.29-.22c-.25-.18-.51-.37-.76-.57l-.15-.11-1.24-.95-.45-.33-.05,0-.41-.31-.53-.42-.37-.29-.13-.1-.21-.15-.31-.25h0l0,0,0,0-.65-.5-.15-.12-1.94-1.53c-.32-.24-.63-.49-.94-.74l-.27-.22-.12-.1-.06,0-.15-.12-.44-.36-.13-.1,0,0-.19-.17-.09-.07-1.25-1-.06-.05-.45-.37-1-.78-.38-.32-.67-.55c-.13-.12-.26-.22-.39-.32l-.31-.26,0,0-.06-.05-.16-.13-.16-.14-.25-.21-.12-.1-.1-.09-.53-.44-.6-.52-.29-.24-.08-.07-2.63-2.27-.09-.07-2.6-2.3-.13-.11-.1-.09-.12-.11-.68-.61-1.63-1.47-.1-.09-2.53-2.32c-.87-.8-1.73-1.61-2.59-2.43-1.19-1.12-2.36-2.25-3.53-3.39-.35-.33-.7-.68-1-1-.84-.82-1.67-1.65-2.5-2.48l-1.62-1.64c-.63-.64-1.26-1.28-1.87-1.93s-1.09-1.11-1.61-1.67q-1.64-1.71-3.24-3.43c-.93-1-1.85-2-2.76-3-1.12-1.23-2.22-2.47-3.32-3.71-.77-.87-1.53-1.75-2.29-2.63s-1.58-1.84-2.36-2.77-1.63-1.93-2.43-2.91q-1.66-2-3.3-4.06-.85-1-1.68-2.13l-1.81-2.31-1-1.31c-.59-.76-1.17-1.52-1.74-2.29s-1.22-1.62-1.82-2.44l-2-2.73-.6-.83c-.56-.77-1.11-1.55-1.66-2.34-.26-.36-.52-.73-.77-1.1-.62-.87-1.23-1.76-1.83-2.64-.06-.08-.11-.16-.16-.24-.77-1.12-1.52-2.24-2.27-3.36s-1.45-2.2-2.17-3.3l-.19-.31c-.46-.7-.91-1.41-1.36-2.11l-.28-.44-1.15-1.83q-3-4.86-5.88-9.8c-.64-1.11-1.28-2.22-1.9-3.34s-1.12-2-1.67-3c-.28-.5-.56-1-.83-1.52l-.08-.15c-.48-.89-1-1.78-1.43-2.68l-.11-.22c-.63-1.18-1.24-2.38-1.85-3.57-.46-.9-.92-1.8-1.37-2.71l-.15-.31c-.61-1.22-1.2-2.44-1.79-3.67a.16.16,0,0,1,0-.07c-.45-.94-.9-1.88-1.33-2.82q-2-4.18-3.8-8.42l-.87-2-.87-2.08c-.11-.25-.21-.51-.31-.76l-.12-.3c-.42-1-.84-2-1.24-3.05s-.76-1.92-1.13-2.88q-2.28-5.88-4.29-11.82c-.3-.9-.6-1.79-.89-2.69s-.59-1.8-.87-2.71-.67-2.1-1-3.15a786.64,786.64,0,0,0,89.21,25q12.27,2.7,24.82,5.08,15.45,2.93,31.3,5.38,17.91,2.76,36.29,4.9,25.17,2.92,51.13,4.61c4.17.28,8.37.53,12.57.75q19.35,1,39.11,1.34c2.64.05,5.28.08,7.92.11q9.59.09,19.26,0,10.37-.09,20.62-.38,15.27-.41,30.31-1.26,22.55-1.24,44.56-3.45,10.85-1.07,21.54-2.36h0q14.09-1.68,27.92-3.77,4.65-.69,9.26-1.44,3-.47,5.9-1l2.36-.39,6.83-1.18.75-.13c2.39-.42,4.77-.86,7.15-1.3l.12,0,.29-.06c2.51-.46,5-.94,7.51-1.43l2-.38c2.54-.49,5.06-1,7.58-1.52h0q10.7-2.19,21.16-4.61A794.05,794.05,0,0,0,2306.86,3160.54Z"/>
		<path class="cls-3" d="M1962.77,3391.26c0,.39-.09.77-.13,1.16-.19,1.63-.37,3.27-.55,4.93-.14,1.33-.28,2.67-.41,4,0,.23,0,.46-.07.7-.12,1.19-.23,2.4-.34,3.61q-.12,1.37-.24,2.76c-.12,1.36-.23,2.73-.34,4.1s-.22,2.89-.32,4.34q-.09,1.07-.15,2.13c-.11,1.62-.22,3.25-.31,4.9s-.18,3.14-.25,4.72c-.12,2.12-.21,4.25-.3,6.4,0,.68-.06,1.36-.1,2,0,.37,0,.73-.08,1.09s0,.72-.08,1.07-.08.88-.13,1.32a.11.11,0,0,1,0,.08c-.06.6-.13,1.2-.2,1.79l0,0a67.17,67.17,0,0,0-27.5-17.37c-20.06-6.65-44.41-11.44-70.68-14-11.21-1.1-22.78-1.79-34.51-2.05-6.45-.14-13.59-.16-21.28,0-10.57.25-22.17.88-34.44,2.11q.35-5.7.77-11.27c.07-1,.15-2,.24-3,.29-3.77.62-7.51,1-11.2a.15.15,0,0,0,0-.07l.12-1.26c.08-.87.17-1.72.25-2.58,0-.43.09-.87.13-1.3.17-1.62.34-3.23.52-4.84s.36-3.29.55-4.92.38-3.26.58-4.87q.36-3,.75-6c.16-1.18.31-2.35.47-3.51q.87-6.42,1.83-12.67l.51-3.32c.17-1.08.34-2.15.52-3.21.22-1.36.44-2.72.67-4.06.25-1.51.51-3,.77-4.5.22-1.27.44-2.53.67-3.78.89-5,1.83-9.84,2.79-14.64h0c0-.05,0-.11,0-.15s0,0,0,0c.11-.34.21-.69.33-1a336.14,336.14,0,0,0,45.62,34.87l2.11,1.33q13.31,8.36,27.44,15.4c1.09.55,2.2,1.09,3.3,1.63q11.19,5.43,22.83,10,11.13,4.35,22.64,7.87,2.22.68,4.47,1.32A300.8,300.8,0,0,0,1962.77,3391.26Z"/>
		<path class="cls-3" d="M2229.17,3411c-10.54-1.05-20.58-1.64-29.89-1.94s-17.76-.31-25.33-.14c-12.52.27-24.86,1-36.78,2.27-25.41,2.62-48.94,7.33-68.42,13.79a67.23,67.23,0,0,0-27.8,17.68c-.15-1.38-.26-2.78-.34-4.19-1-17.05-2.63-33.05-4.79-48.13l.36-.05,3.4-.46,1.71-.25c1.45-.21,2.89-.43,4.33-.67s2.89-.47,4.32-.72l.13,0c1.2-.21,2.39-.42,3.58-.65l.67-.12,2.58-.51q5.17-1,10.3-2.22l2.07-.49,1.17-.28c1.3-.31,2.59-.64,3.88-1,.35-.08.71-.17,1.06-.28,1.14-.29,2.28-.59,3.42-.91.64-.16,1.28-.34,1.91-.52.84-.23,1.68-.47,2.51-.72s1.81-.52,2.71-.79l1.56-.47,2.7-.82,3.09-1q5.94-1.93,11.79-4.09c1.31-.47,2.62-1,3.93-1.47l.22-.08c1.13-.43,2.26-.87,3.38-1.32s2-.81,3.05-1.23l1.23-.5,2.85-1.2c1-.42,2-.86,3-1.3l2.77-1.22q4-1.8,8-3.7t7.86-3.9a334.4,334.4,0,0,0,64.59-43.33c.87-.74,1.73-1.48,2.58-2.23.7-.6,1.4-1.22,2.09-1.83l.69-.62,1.8-1.61.5-.46c3.74,16.67,7.09,34.36,9.86,53.18C2225.84,3376.54,2227.78,3393.36,2229.17,3411Z"/>
		<g class="cls-4">
			<path class="cls-5" d="M2306.86,3160.54c-.32,1.1-.64,2.2-1,3.29a1.54,1.54,0,0,0,0,.17q-1.05,3.47-2.19,6.9c-.36,1.11-.74,2.21-1.12,3.32q-2.52,7.35-5.44,14.58c-.43,1.06-.86,2.11-1.3,3.17s-.76,1.81-1.15,2.72c-.48,1.11-1,2.23-1.46,3.34s-1,2.23-1.5,3.34-1,2.21-1.54,3.31-.9,1.9-1.36,2.84c-.6,1.26-1.22,2.51-1.85,3.76-.54,1.09-1.1,2.18-1.66,3.27-.45.88-.91,1.75-1.37,2.62-.12.23-.24.45-.35.68l-1.58,2.92c-.56,1-1.13,2.07-1.7,3.09-.48.85-.95,1.7-1.43,2.54-.21.38-.43.75-.65,1.12-.47.83-1,1.65-1.44,2.47s-1.1,1.88-1.67,2.81c-.12.21-.24.41-.37.61-.53.88-1.07,1.77-1.62,2.65s-1.24,2-1.88,3q-.67,1.08-1.38,2.16c-.36.57-.73,1.13-1.1,1.69-.45.71-.92,1.41-1.39,2.11q-2,3-4,5.89t-4.14,5.8c-1.41,1.93-2.83,3.83-4.28,5.73-.72.95-1.45,1.9-2.19,2.83s-1.47,1.88-2.22,2.82-1.49,1.87-2.25,2.79-1.52,1.85-2.29,2.77c-.5.61-1,1.21-1.53,1.82l-1.42,1.68-1.55,1.79-.42.47c-.7.81-1.41,1.61-2.12,2.41s-1.6,1.79-2.41,2.68-1.42,1.56-2.14,2.33l-.71.76c-.58.63-1.18,1.26-1.77,1.89l-.8.84-1.87,1.95c-1,1-1.94,2-2.92,3-.76.77-1.53,1.53-2.3,2.29l-2.6,2.54c-.87.84-1.74,1.68-2.62,2.5s-1.76,1.66-2.65,2.48c-.7.67-1.41,1.31-2.12,2l-.4.35-.5.46-1.8,1.61-.69.62-1,.92-1.05.91c-.85.75-1.71,1.49-2.58,2.23q-3.67,3.13-7.44,6.17l-1.84,1.48-1.86,1.46-.09.08-.06,0,0,0-.5.39c-1.07.85-2.15,1.68-3.24,2.5q-1.89,1.44-3.81,2.86l-.07,0c-1,.75-2,1.49-3.05,2.22l-.88.63-.23.17q-1.86,1.32-3.75,2.63l-1.26.88-2.53,1.72-.28.19c-1.07.72-2.15,1.43-3.23,2.14l-1,.63-.45.29-.84.54-1.8,1.15-.74.47-.09.06-.78.49-.3.18q-1,.63-2,1.23l-.06,0-.3.18-.19.12-.45.28-.46.28-.72.43-.31.19c-.93.56-1.86,1.12-2.8,1.67l0,0-.45.26-1.47.86-1.94,1.12-.33.19c-1,.58-2,1.15-3.06,1.72l-1.22.68-.33.18-.44.23a.39.39,0,0,1-.11.06l-.35.2-.33.18-1.44.78-.72.39-.6.32-.61.32-.7.37-3.05,1.58c-1.3.67-2.6,1.33-3.91,2h0l-2.89,1.42-.62.3-.43.2-2,.95c-.24.11-.47.23-.71.33l-.42.2-.87.4-3.22,1.46-.68.31a2.41,2.41,0,0,1-.33.15c-.65.3-1.31.59-2,.87-1,.43-1.95.86-2.93,1.27l-.05,0-.28.13-.13.05-.06,0a.47.47,0,0,1-.15.06l-1,.41c-.36.15-.72.31-1.08.45l-.81.34-1.23.5-.81.33-1,.41-.61.24-.69.28-1,.4-.14,0c-.64.27-1.3.52-2,.76l-.34.13-.65.25-1.62.61-.86.32c-.66.25-1.32.5-2,.73l-.21.08-.73.26-1.44.52-.77.27-1.6.56-.69.23a5.17,5.17,0,0,1-.51.18l-.18.07-.33.11-1.25.42-2.24.74-.67.22-1.49.48-1.65.53-.3.09-.21.06-.84.26-1.53.46q-.69.22-1.38.42l-1.35.4-.68.2-.68.19-1.06.31c-.36.11-.71.21-1.07.3l-.38.11-1.34.37-.36.1-.83.22-1,.28-.5.13-1.56.41-.26.07-1.25.32-1.22.31-3.11.76-1.85.44-2.65.61-.14,0-.38.08-.61.14-1.42.32-1,.21q-.86.2-1.71.36l-1.42.29-1.57.32-1.36.26-.21,0-.6.12-.67.12-1.22.23c-.56.11-1.13.21-1.69.3-.22.05-.45.09-.67.12l-.13,0-.35.06a2.25,2.25,0,0,1-.36.06l-.63.11-1.95.32-1,.17-.92.15-.18,0-1.06.17-1.23.18-.94.14c-.75.12-1.5.23-2.26.33l-2.85.38-.36.05a1,1,0,0,1-.25,0l-2.89.35-1.94.23-1.54.17-.31,0-.81.09-1.23.12c-1,.1-2.1.21-3.15.3s-2.11.2-3.16.28-2.09.17-3.15.24c-.63.05-1.27.1-1.91.13-1,.07-2,.13-3,.18-.14,0-.28,0-.42,0l-2.91.14q-1.89.09-3.81.15h-.4c-1.15,0-2.3.07-3.46.09s-2.57.05-3.85.06c-3.16,0-6.3,0-9.43-.08-.68,0-1.35,0-2,0s-1.21,0-1.82-.06l-1.85-.07q-3.73-.15-7.46-.41l-1.56-.11-2.6-.2c-1.52-.12-3-.26-4.55-.4l-3.06-.32-.48,0h0l-2-.23-.61-.07-1-.12-.37-.05h-.12l-1.86-.24-.61-.08-.68-.09-.58-.08-.22,0-.76-.11-.77-.11a1,1,0,0,1-.24,0l-.92-.13c-.33,0-.67-.09-1-.15l-.68-.11-.33,0h0l-.73-.11-1.92-.31-.14,0-.25,0-.1,0-.64-.1q-1.31-.21-2.61-.45l-.12,0-.4-.07H1943a1.09,1.09,0,0,1-.26,0l-.33-.06-.13,0-.17,0-.33-.06-.29-.06-.32-.05-.38-.07-.22,0h0l-.19,0h0l-.78-.15-1.66-.32-.45-.09c-.39-.07-.78-.14-1.16-.23l-.2,0-.5-.1-.3-.06-.08,0-.54-.11-.34-.07q-.48-.09-1-.21c-.34-.06-.67-.13-1-.21l-.73-.15h0l-.32-.07-.07,0c-.36-.07-.73-.15-1.09-.24l-.24-.05-.88-.2h0l-.42-.1-.16,0-.3-.07-1.15-.27-1.17-.28c-.26-.05-.51-.11-.77-.18l-.29-.07-.56-.14-1.5-.37-.9-.23c-.36-.08-.71-.17-1.06-.27l-1.33-.34-.29-.08-.14,0h0s0,0,0,0a.79.79,0,0,1-.22-.06l-.17,0-.74-.2-.75-.2-1.17-.32-.51-.14-.7-.2-2.37-.67-2.5-.73-1-.29-.42-.12-1-.32c-.46-.13-.91-.27-1.36-.42l-2.49-.79-1.56-.5-.61-.2-2.11-.7-.14,0-.23-.08,0,0-.19-.06-.31-.11-.27-.09-1.46-.5-.18-.07-.25-.08q-.35-.13-.69-.24l-.34-.12-.54-.19-.29-.11h-.11l-.06,0,0,0-.1,0-.18-.06h0l-.44-.16c-.19-.06-.39-.13-.58-.21q-1.07-.37-2.13-.78l-.65-.25-.16,0-.07,0c-.59-.21-1.17-.43-1.75-.66l-1.3-.49-.19-.07-1.1-.43-.72-.28-2.34-.93-.16-.07-2.77-1.13-.14-.06-2.74-1.15-1.08-.46-1-.45-1.1-.48-.31-.14-.24-.11-1-.43-1-.43-2.23-1-.61-.28-2.91-1.36-2.71-1.3-1.39-.68-1.91-.95-1-.47-.72-.37-.14-.07-1-.5-1.5-.77-.19-.1-.27-.14-.4-.21-.54-.28-.55-.29-.76-.4,0,0-.1,0-.16-.09-.52-.28-.82-.44-1.25-.67-.59-.33-.74-.4-1.93-1.07-.45-.25-.33-.18-.2-.12-.35-.19-.11-.07c-.36-.2-.72-.4-1.07-.61s-.73-.41-1.09-.62l-.1-.06-.49-.28-1.21-.7-1.35-.79-.34-.2-.46-.27-.45-.27-.08,0,0,0-.28-.17h0l-.12-.07-.54-.33,0,0-1.69-1-.13-.08-.24-.15-2.38-1.47-.72-.45-.2-.12-.21-.13c-.12-.08-.25-.15-.37-.24a2.12,2.12,0,0,1-.2-.12l-1-.62-.21-.13-.06,0c-.86-.55-1.72-1.1-2.57-1.66l-.09-.06a.2.2,0,0,1-.08,0l-.18-.12-.61-.4-.14-.09-.1-.07-2.16-1.43-.33-.21-.28-.2,0,0-.09-.06c-.57-.38-1.14-.76-1.7-1.15,0,0,0,0,0,0l-.53-.36-.56-.39-.79-.54-.3-.21-.69-.47,0,0-.09-.06,0,0-.45-.31h0l-.33-.24-.15-.11-1.61-1.13-.84-.6-1.08-.78-1.47-1.06-.06-.05a.88.88,0,0,1-.17-.12l-.09-.06h0l-.09-.07s0,0,0,0h0l-.13-.1a1.33,1.33,0,0,1-.19-.14,1.49,1.49,0,0,1-.2-.15l-.5-.37-.41-.29-.17-.12-.28-.22a.35.35,0,0,1-.1-.08,4,4,0,0,1-.35-.26l-.23-.16-.11-.09-.06,0-.29-.22c-.25-.18-.51-.37-.76-.57l-.15-.11-1.24-.95-.45-.33-.05,0-.41-.31-.53-.42-.37-.29-.13-.1-.21-.15-.31-.25h0l0,0,0,0-.65-.5-.15-.12-1.94-1.53c-.32-.24-.63-.49-.94-.74l-.27-.22-.12-.1-.06,0-.15-.12-.44-.36-.13-.1,0,0-.19-.17-.09-.07-1.25-1-.06-.05-.45-.37-1-.78-.38-.32-.67-.55c-.13-.12-.26-.22-.39-.32l-.31-.26,0,0-.06-.05-.16-.13-.16-.14-.25-.21-.12-.1-.1-.09-.53-.44-.6-.52-.29-.24-.08-.07-2.63-2.27-.09-.07-2.6-2.3-.13-.11-.1-.09-.12-.11-.68-.61-1.63-1.47-.1-.09-2.53-2.32c-.87-.8-1.73-1.61-2.59-2.43-1.19-1.12-2.36-2.25-3.53-3.39-.35-.33-.7-.68-1-1-.84-.82-1.67-1.65-2.5-2.48l-1.62-1.64c-.63-.64-1.26-1.28-1.87-1.93s-1.09-1.11-1.61-1.67q-1.64-1.71-3.24-3.43c-.93-1-1.85-2-2.76-3-1.12-1.23-2.22-2.47-3.32-3.71-.77-.87-1.53-1.75-2.29-2.63s-1.58-1.84-2.36-2.77-1.63-1.93-2.43-2.91q-1.66-2-3.3-4.06-.85-1-1.68-2.13l-1.81-2.31-1-1.31c-.59-.76-1.17-1.52-1.74-2.29s-1.22-1.62-1.82-2.44l-2-2.73-.6-.83c-.56-.77-1.11-1.55-1.66-2.34-.26-.36-.52-.73-.77-1.1-.62-.87-1.23-1.76-1.83-2.64-.06-.08-.11-.16-.16-.24-.77-1.12-1.52-2.24-2.27-3.36s-1.45-2.2-2.17-3.3l-.19-.31c-.46-.7-.91-1.41-1.36-2.11l-.28-.44-1.15-1.83q-3-4.86-5.88-9.8c-.64-1.11-1.28-2.22-1.9-3.34s-1.12-2-1.67-3c-.28-.5-.56-1-.83-1.52l-.08-.15c-.48-.89-1-1.78-1.43-2.68l-.11-.22c-.63-1.18-1.24-2.38-1.85-3.57-.46-.9-.92-1.8-1.37-2.71l-.15-.31c-.61-1.22-1.2-2.44-1.79-3.67a.16.16,0,0,1,0-.07c-.45-.94-.9-1.88-1.33-2.82q-2-4.18-3.8-8.42l-.87-2-.87-2.08c-.11-.25-.21-.51-.31-.76l-.12-.3c-.42-1-.84-2-1.24-3.05s-.76-1.92-1.13-2.88q-2.28-5.88-4.29-11.82c-.3-.9-.6-1.79-.89-2.69s-.59-1.8-.87-2.71-.67-2.1-1-3.15a786.64,786.64,0,0,0,89.21,25q12.27,2.7,24.82,5.08,15.45,2.93,31.3,5.38,17.91,2.76,36.29,4.9,25.17,2.92,51.13,4.61c4.17.28,8.37.53,12.57.75q19.35,1,39.11,1.34c2.64.05,5.28.08,7.92.11q9.59.09,19.26,0,10.37-.09,20.62-.38,15.27-.41,30.31-1.26,22.55-1.24,44.56-3.45,10.85-1.07,21.54-2.36h0q14.09-1.68,27.92-3.77,4.65-.69,9.26-1.44,3-.47,5.9-1l2.36-.39,6.83-1.18.75-.13c2.39-.42,4.77-.86,7.15-1.3l.12,0,.29-.06c2.51-.46,5-.94,7.51-1.43l2-.38c2.54-.49,5.06-1,7.58-1.52h0q10.7-2.19,21.16-4.61A794.05,794.05,0,0,0,2306.86,3160.54Z"/>
		</g>
		<path class="cls-6" d="M2285.27,3214.55a329.67,329.67,0,0,1-69.13,90.5c-.7.66-1.41,1.31-2.12,2l-.4.35-.5.46-1.8,1.61-.69.62c-.69.61-1.39,1.23-2.09,1.83-.85.75-1.71,1.49-2.58,2.23a334.4,334.4,0,0,1-64.59,43.33q-3.9,2-7.86,3.9t-8,3.7l-2.77,1.22c-1,.44-2,.88-3,1.3l-2.85,1.2-1.23.5c-1,.42-2,.83-3.05,1.23s-2.25.89-3.38,1.32l-.22.08c-1.31.5-2.62,1-3.93,1.47q-5.85,2.16-11.79,4.09l-3.09,1-2.7.82-1.56.47c-.9.27-1.8.54-2.71.79s-1.67.49-2.51.72c-.63.18-1.27.36-1.91.52-1.14.32-2.28.62-3.42.91-.35.11-.71.2-1.06.28-1.29.34-2.58.67-3.88,1l-1.17.28-2.07.49q-5.13,1.2-10.3,2.22l-2.58.51-.67.12c-1.19.23-2.38.44-3.58.65l-.13,0q-2.14.38-4.32.72c-1.44.24-2.88.46-4.33.67l-1.71.25-3.4.46-.36.05-3.14.38-1.94.23-2.66.29q-15,1.59-30.47,1.73a297.55,297.55,0,0,1-34.84-1.75l-2-.23c-.7-.07-1.41-.16-2.11-.25l-3.15-.41q-3.13-.42-6.26-.91-6.11-.95-12.12-2.15-2.88-.57-5.75-1.2-9.69-2.12-19.17-4.86-2.25-.64-4.47-1.32c-1.21-.37-2.41-.74-3.62-1.13l-.25-.08q-.65-.19-1.29-.42l-.7-.22-2.72-.9-.92-.32-1.73-.59-.18-.07-1.82-.63-.51-.19-.82-.29c-.84-.3-1.67-.6-2.49-.91l-.66-.25-.39-.14c-.59-.21-1.17-.43-1.75-.66l-1.5-.58-1.29-.49q-11.64-4.54-22.83-10c-1.1-.54-2.21-1.08-3.3-1.63q-9.81-4.87-19.21-10.41c-.68-.39-1.35-.79-2-1.19q-3.12-1.86-6.21-3.8l-2.11-1.33c-.76-.48-1.51-1-2.26-1.46l-1.38-.89-.24-.16-2.16-1.43-.65-.44c-.6-.4-1.2-.8-1.79-1.21-.82-.55-1.63-1.11-2.44-1.67l-.62-.43-.94-.66-2.45-1.73-1.08-.78c-1.2-.86-2.38-1.72-3.56-2.61l-1.38-1c-.72-.54-1.44-1.08-2.15-1.63s-1.65-1.25-2.46-1.89a.48.48,0,0,1-.11-.09l-.77-.59-1.94-1.53-1.32-1a1.74,1.74,0,0,0-.22-.18l-.88-.72-1.71-1.39-1.32-1.09-2.84-2.37q-1.82-1.54-3.6-3.1c-.9-.78-1.8-1.57-2.69-2.37l-2.66-2.39-.1-.09-2.53-2.32c-.87-.8-1.73-1.61-2.59-2.43s-1.78-1.68-2.66-2.54c-1.28-1.24-2.56-2.49-3.82-3.75-32.07-32-57.37-70-73.52-110.59a443.91,443.91,0,0,0,38.56,48.63q9.06,9.89,18.8,19.28a401.82,401.82,0,0,0,45.3,37.71q7.89,5.63,16.08,10.87a362.4,362.4,0,0,0,42.13,23.16q13.92,6.49,28.54,11.77a336.41,336.41,0,0,0,37.25,11.06q10.9,2.55,22.13,4.4a338.36,338.36,0,0,0,57.26,4.43q12.87-.1,25.37-1.13,13.79-1.12,27.1-3.34,13.82-2.27,27.13-5.62,7.59-1.92,15-4.17a339.34,339.34,0,0,0,34.42-12.5q13.59-5.77,26.5-12.62,14.57-7.68,28.27-16.59,10.55-6.83,20.57-14.31,5.49-4.09,10.83-8.37,4.44-3.54,8.75-7.21,9.4-8,18.28-16.42,11.91-11.36,22.86-23.49Q2277.79,3223.78,2285.27,3214.55Z"/>
		<path class="cls-7" d="M1962.77,3391.26c0,.39-.09.77-.13,1.16-.19,1.63-.37,3.27-.55,4.93-.14,1.33-.28,2.67-.41,4,0,.23,0,.46-.07.7-.12,1.19-.23,2.4-.34,3.61q-.12,1.37-.24,2.76c-.12,1.36-.23,2.73-.34,4.1s-.22,2.89-.32,4.34q-.09,1.07-.15,2.13c-.11,1.62-.22,3.25-.31,4.9s-.18,3.14-.25,4.72c-.12,2.12-.21,4.25-.3,6.4,0,.68-.06,1.36-.1,2,0,.37,0,.73-.08,1.09s0,.72-.08,1.07-.08.88-.13,1.32a.11.11,0,0,1,0,.08c-.06.6-.13,1.2-.2,1.79l0,0a67.17,67.17,0,0,0-27.5-17.37c-20.06-6.65-44.41-11.44-70.68-14-11.21-1.1-22.78-1.79-34.51-2.05-6.45-.14-13.59-.16-21.28,0-10.57.25-22.17.88-34.44,2.11q.35-5.7.77-11.27c.07-1,.15-2,.24-3,.29-3.77.62-7.51,1-11.2a.15.15,0,0,0,0-.07l.12-1.26c.08-.87.17-1.72.25-2.58,0-.43.09-.87.13-1.3.17-1.62.34-3.23.52-4.84s.36-3.29.55-4.92.38-3.26.58-4.87q.36-3,.75-6c.16-1.18.31-2.35.47-3.51q.87-6.42,1.83-12.67l.51-3.32c.17-1.08.34-2.15.52-3.21.22-1.36.44-2.72.67-4.06.25-1.51.51-3,.77-4.5.22-1.27.44-2.53.67-3.78.89-5,1.83-9.84,2.79-14.64h0c0-.05,0-.11,0-.15s0,0,0,0c.11-.34.21-.69.33-1a336.14,336.14,0,0,0,45.62,34.87l2.11,1.33q13.31,8.36,27.44,15.4c1.09.55,2.2,1.09,3.3,1.63q11.19,5.43,22.83,10,11.13,4.35,22.64,7.87,2.22.68,4.47,1.32A300.8,300.8,0,0,0,1962.77,3391.26Z"/>
		<path class="cls-7" d="M2229.17,3411c-10.54-1.05-20.58-1.64-29.89-1.94s-17.76-.31-25.33-.14c-12.52.27-24.86,1-36.78,2.27-25.41,2.62-48.94,7.33-68.42,13.79a67.23,67.23,0,0,0-27.8,17.68c-.15-1.38-.26-2.78-.34-4.19-1-17.05-2.63-33.05-4.79-48.13l.36-.05,3.4-.46,1.71-.25c1.45-.21,2.89-.43,4.33-.67s2.89-.47,4.32-.72l.13,0c1.2-.21,2.39-.42,3.58-.65l.67-.12,2.58-.51q5.17-1,10.3-2.22l2.07-.49,1.17-.28c1.3-.31,2.59-.64,3.88-1,.35-.08.71-.17,1.06-.28,1.14-.29,2.28-.59,3.42-.91.64-.16,1.28-.34,1.91-.52.84-.23,1.68-.47,2.51-.72s1.81-.52,2.71-.79l1.56-.47,2.7-.82,3.09-1q5.94-1.93,11.79-4.09c1.31-.47,2.62-1,3.93-1.47l.22-.08c1.13-.43,2.26-.87,3.38-1.32s2-.81,3.05-1.23l1.23-.5,2.85-1.2c1-.42,2-.86,3-1.3l2.77-1.22q4-1.8,8-3.7t7.86-3.9a334.4,334.4,0,0,0,64.59-43.33c.87-.74,1.73-1.48,2.58-2.23.7-.6,1.4-1.22,2.09-1.83l.69-.62,1.8-1.61.5-.46c3.74,16.67,7.09,34.36,9.86,53.18C2225.84,3376.54,2227.78,3393.36,2229.17,3411Z"/>
		<g class="cls-8">
			<path d="M1959.44,3433.13c0,.63,0,1.27-.08,1.9q-.15,3.73-.58,7.39a67.23,67.23,0,0,0-27.53-17.4c-28.62-9.49-66-15.2-105.2-16.06a459.31,459.31,0,0,0-55.71,2.13c.2-3.39.43-6.74.68-10.07a462.82,462.82,0,0,1,55-2.06c39.22.86,76.58,6.57,105.2,16.06A67.16,67.16,0,0,1,1959.44,3433.13Z"/>
			<path d="M2229.17,3411A462.3,462.3,0,0,0,2174,3409c-39.22.86-76.58,6.57-105.2,16.06a67.16,67.16,0,0,0-27.8,17.69c-.15-1.39-.26-2.79-.34-4.2-.1-1.71-.2-3.4-.32-5.09a67.14,67.14,0,0,1,28.46-18.4c28.62-9.49,66-15.2,105.2-16.06a462.57,462.57,0,0,1,54.36,2Q2228.76,3405.95,2229.17,3411Z"/>
		</g>
		<g class="cls-8">
			<path d="M1783.72,3308.76c48.55,44.14,110.63,75,179.06,82.49q-.87,7.27-1.54,14.83c-69-7.92-131.44-39.58-180-84.59Q1782.44,3315,1783.72,3308.76Z"/>
			<path d="M2216.32,3319.91c-47.76,44.29-109.47,75.84-178.59,85.21q-.87-7.51-1.91-14.74c68.6-8.88,130-39.6,177.8-83Q2215,3313.56,2216.32,3319.91Z"/>
		</g>
		<path class="cls-9" d="M2316.85,3105.66a268.18,268.18,0,0,1-7.84,47c-.67,2.64-1.39,5.26-2.15,7.88-.32,1.1-.64,2.2-1,3.29h0q-28.4,10.11-59.72,18.37-4.62,1.22-9.3,2.39l-4.7,1.16q-7.07,1.73-14.25,3.36-9.59,2.17-19.38,4.17-29.37,6-60.54,10.27-5.19.7-10.42,1.37l-5.24.65q-7.89.94-15.86,1.8-4.44.47-8.91.9l-1.76.17q-8,.76-16.15,1.41c-1.8.15-3.61.29-5.42.42q-4.41.33-8.85.62-31.07,2.06-63.23,2.36-26.81.23-52.92-.8-.36,0-.69,0-12.75-.51-25.29-1.3l-1.06-.07c-25.37-1.63-50.13-4.14-74.13-7.47q-8.22-1.12-16.31-2.39-13.15-2.05-26-4.42-4.79-.89-9.53-1.82c-2.21-.43-4.4-.87-6.59-1.32q-10.89-2.22-21.5-4.67a745.8,745.8,0,0,1-76.74-21.94c-.34-1.05-.67-2.1-1-3.15-.77-2.5-1.5-5-2.19-7.54a270.3,270.3,0,0,1-8.63-47.34c68.83,25.32,152.25,42.39,243.55,48.15,25.6,1.62,51.82,2.34,78.51,2.11,32.34-.28,64-1.95,94.6-4.9C2178.53,3146.45,2253.74,3129.42,2316.85,3105.66Z"/>
		<path class="cls-10" d="M2309,3152.66c-.67,2.64-1.39,5.26-2.15,7.88-.32,1.1-.64,2.2-1,3.29h0q-28.4,10.11-59.72,18.37-4.62,1.22-9.3,2.39l-4.7,1.16q-7.07,1.74-14.25,3.36-9.59,2.17-19.38,4.17-29.37,6-60.54,10.27-5.19.7-10.42,1.37l-5.24.65q-7.89,1-15.86,1.8-4.44.47-8.91.9l-1.76.17q-8,.76-16.15,1.41c-1.8.15-3.61.29-5.42.42q-4.41.33-8.85.62-31.07,2.07-63.22,2.37-26.81.22-52.93-.81-.36,0-.69,0-12.74-.49-25.29-1.3l-1.06-.07c-25.37-1.63-50.13-4.14-74.13-7.47q-8.22-1.12-16.31-2.39-13.15-2.05-26-4.42-4.79-.89-9.53-1.82c-2.21-.43-4.4-.87-6.59-1.32q-10.89-2.22-21.5-4.67a745.8,745.8,0,0,1-76.74-21.94c-.34-1.05-.67-2.1-1-3.15-.77-2.5-1.5-5-2.19-7.54,67.61,22.46,147.75,37.55,234.85,42.77.33,0,.67.05,1,.06,25.24,1.51,51.07,2.17,77.34,2,32.63-.28,64.54-1.92,95.48-4.79l.53-.05h0C2175.54,3189,2247.45,3173.79,2309,3152.66Z"/>
		<rect class="cls-9" x="1922.98" y="3145.38" width="174.37" height="78.48" rx="14.51" ry="14.51" transform="translate(-27.71 17.66) rotate(-0.5)"/>
		<path class="cls-11" d="M2097.56,3208.58a14.51,14.51,0,0,1-14.38,14.64l-145.35,1.27a14.53,14.53,0,0,1-14.64-14.38l-.13-16.2a14.5,14.5,0,0,0,14.63,14.38L2083,3207a14.52,14.52,0,0,0,14.4-14.31Z"/>
	</g>
</svg>