<svg
	xmlns="http://www.w3.org/2000/svg" viewBox="0 0 4000 4000">
	<defs>
		<style>.cls-1{fill:#aaaaaa;}.cls-2{fill:#333;}.cls-3{fill:#ee3522;}.cls-4{fill:#999;}.cls-5{fill:#e6e6e6;}.cls-6{opacity:0.1;}</style>
	</defs>
	<title>shoes</title>
	<g id="shoes">
		<path class="cls-1" d="M1781.82,3416.32c-34,0-52.36-3.71-56-11.34-1-2.07-1.42-5.44,2.09-9.78a80.87,80.87,0,0,1,26.31-20.84c8.5-4.26,17.27-6.81,23.45-6.81a16.91,16.91,0,0,1,2.78.21,4.42,4.42,0,0,1,3.64,5.08c-1.2,7.16,9.65,23.24,15.47,31.88,1.14,1.69,2.15,3.2,3,4.46A4.41,4.41,0,0,1,1799,3416c-3.87.15-10,.33-17.2.33Z"/>
		<path class="cls-2" d="M1777.68,3370.05a14.11,14.11,0,0,1,2.37.18,1.9,1.9,0,0,1,1.58,2.2c-1.59,9.53,13.23,29.49,18.81,38.11a1.91,1.91,0,0,1-1.52,2.95c-3.56.14-9.77.33-17.1.33-25.32,0-63.92-2.3-52-17,14.77-18.19,37.28-26.73,47.82-26.73m0-5c-11.84,0-35.7,8.87-51.7,28.58-4.34,5.34-3.7,9.7-2.41,12.42,2.66,5.58,10.22,8.95,24.51,10.92a255.59,255.59,0,0,0,33.74,1.85c7.24,0,13.4-.18,17.3-.34a6.91,6.91,0,0,0,5.52-10.66c-.84-1.29-1.84-2.77-3-4.49-4.82-7.16-16.11-23.9-15.08-30.07a6.92,6.92,0,0,0-5.69-8,18.6,18.6,0,0,0-3.19-.25Z"/>
		<path class="cls-3" d="M1883.65,3524.72c-71.73,0-161.63-7.5-208.84-12-30.76-2.91-60.32-6.14-83.23-9.07-34.66-4.45-35.84-5.74-36.7-6.68-1.37-1.5-3.14-3.81-2.7-6.48.49-3,3.35-4.62,6.65-6.46,1-.53,1.93-1.07,2.92-1.68,3.9-2.4,16.12-5.65,33-10,7.38-1.9,14.36-3.69,17.64-4.8,3.06-1,7.57-2.45,12.8-4.08,14.27-4.45,38.16-11.91,42.14-15.34,2.16-1.86,9.23-5.69,22.6-12.85,20.52-11,51.35-27.51,73.53-43.18a8,8,0,0,1,1.79-4.15c1.73-2.23,5.08-4.63,8.35-4.63a6,6,0,0,1,2.18.4c13.51,5.45,45.34,13.26,94.17,18.86a297.11,297.11,0,0,0,33.82,1.87c21.58,0,42.58-2.21,53.51-5.63a12.27,12.27,0,0,1,3.58-.66,4.13,4.13,0,0,1,3.93,2.09c.91,1.69.35,3.75-.38,5.32,19.87,20.16,21.27,64.82,18.87,99.15-.6,8.56-11.57,19.95-99.55,19.95Z"/>
		<path class="cls-2" d="M1773.55,3385.87a3.33,3.33,0,0,1,1.24.22c13.93,5.62,46.55,13.49,94.82,19a301.77,301.77,0,0,0,34.11,1.88c23.5,0,44.09-2.57,54.26-5.75a9.86,9.86,0,0,1,2.83-.54c4,0,.43,5.37.43,5.37,18.53,17,22.4,56.94,19.49,98.52-.9,13-41.42,17.62-97,17.62-124,0-323.32-22.93-327-26.91-5.26-5.76.19-7,6.33-10.8s40.92-11.44,50.08-14.54c12.44-4.22,50-14.91,55.77-19.9s62.32-31.86,97.06-56.68c-.81-3.17,4.12-7.52,7.58-7.52m0-5c-4.13,0-8.17,2.81-10.33,5.59a11.22,11.22,0,0,0-2.1,4.24c-22,15.41-52.22,31.6-72.42,42.42-13.9,7.46-20.69,11.13-23.06,13.17-3.58,3.09-29,11-41.25,14.85-5.24,1.63-9.77,3-12.85,4.09s-10.13,2.86-17.46,4.75c-17.59,4.52-29.43,7.68-33.64,10.27-1,.58-1.9,1.11-2.82,1.62-3.55,2-7.22,4-7.91,8.24s2.33,7.48,3.32,8.57c1.49,1.63,2.66,2.91,38.23,7.48,22.94,2.94,52.52,6.16,83.32,9.08,47.25,4.47,137.26,12,209.1,12,29.93,0,53.43-1.35,69.84-4,9.41-1.52,16.48-3.44,21.62-5.86,6.67-3.14,10.23-7.32,10.58-12.41,2.39-34.21,1-78.58-18.46-99.91a7.66,7.66,0,0,0-.31-5.92,6.62,6.62,0,0,0-6.14-3.41,14.57,14.57,0,0,0-4.33.77c-8.77,2.75-28.49,5.52-52.76,5.52a294.51,294.51,0,0,1-33.54-1.85c-48.58-5.57-80.16-13.31-93.52-18.69a8.24,8.24,0,0,0-3.11-.59Z"/>
		<path class="cls-1" d="M1685.27,3463.54a61.69,61.69,0,0,1-20.58-3.15c-4.28-1.52-8.91-3.47-9.69-7.37-.53-2.69-2-9.83,48-37.54,25.2-14,54-27.66,65.51-31.17a18.2,18.2,0,0,1,5.28-.78c6.74,0,12.75,3.74,18,7,1.2.74,2.37,1.47,3.53,2.15l2.35,1.35c10.67,6.08,18.69,11.15,16.91,16.33C1811.4,3419.77,1735.3,3463.54,1685.27,3463.54Z"/>
		<path class="cls-2" d="M1773.79,3386c7.44,0,14.09,5.23,20.31,8.86s19.56,10.61,18.15,14.7c-2.59,7.53-77.21,51.45-127,51.45a59,59,0,0,1-19.74-3c-4.23-1.5-7.6-3.11-8.07-5.49-2.36-11.89,89.79-59.16,111.77-65.83a15.62,15.62,0,0,1,4.56-.68m0-5h0a20.83,20.83,0,0,0-6,.89c-11.67,3.55-40.66,17.33-66,31.38a365.34,365.34,0,0,0-33.87,20.81c-12,8.58-16.4,14.2-15.37,19.4,1.12,5.62,7.74,8,11.3,9.24a64.31,64.31,0,0,0,21.42,3.29c29.49,0,64.86-14.65,83.32-23.38A309.33,309.33,0,0,0,1801,3425c14.38-9.15,15.46-12.3,16-13.81,2.6-7.55-7.89-13.53-18-19.31-.85-.48-1.64-.93-2.33-1.34-1.12-.65-2.26-1.36-3.46-2.11-5.58-3.48-11.91-7.43-19.37-7.43Z"/>
		<path class="cls-4" d="M1791.43,3519.63c-132.41,0-228.19-24.88-235.82-33.12l-1.09-1.18.62-1.48c.1-.25.2-.55.31-.87.6-1.83,1.87-5.63,5.72-5.63a6.31,6.31,0,0,1,1.57.22c51.87,14.09,131.17,21.23,235.7,21.23,95.21,0,178.11-6.21,182.14-6.72a5.49,5.49,0,0,1,1.26-.15,4.55,4.55,0,0,1,3.7,1.83c1.24,1.69,1.38,4.13.41,7.26l-.45,1.45-1.5.27A1110.08,1110.08,0,0,1,1791.43,3519.63Z"/>
		<path class="cls-2" d="M1561.17,3479.85a3.48,3.48,0,0,1,.91.14c61.61,16.73,154,21.31,236.36,21.31,97.82,0,181.5-6.47,182.63-6.76a3,3,0,0,1,.77-.11c1.74,0,3,1.72,1.72,5.85a1106.87,1106.87,0,0,1-192.13,16.85c-135.93,0-227.67-25.5-234-32.32.66-1.59,1.2-5,3.72-5m0-5h0c-5.66,0-7.43,5.33-8.1,7.34-.08.25-.19.57-.24.7l-1.23,3,2.18,2.35c.89,1,3.63,3.93,22.39,9.34a480.32,480.32,0,0,0,48.79,10.91c35.15,6.24,92.57,13.68,166.47,13.68a1112.09,1112.09,0,0,0,193-16.93l3-.53.91-2.91c1.22-3.93,1-7.12-.79-9.48a7,7,0,0,0-5.71-2.85,8.07,8.07,0,0,0-1.68.18c-5.58.63-87.51,6.69-181.72,6.69-104.31,0-183.39-7.11-235-21.14a8.61,8.61,0,0,0-2.22-.31Z"/>
		<path class="cls-5" d="M1788.51,3563c-79.51,0-216.85-4.19-243.35-32.25l-.41-.43-.17-.57c-4.27-14.35.48-39.14,11-43.9l1-.46,1,.45c49.38,21.75,190.22,24.1,248.49,24.1,70.85,0,140.39-3.18,177.16-8.1l2.46-.33.35,2.45c.74,5.08,1.11,28.46-.79,41.55a10.89,10.89,0,0,1-9.18,9.25c-25.77,4-107.3,8.24-187.58,8.24Z"/>
		<path class="cls-2" d="M1556.61,3488.09c40.73,17.94,149.09,24.31,249.49,24.31,73.14,0,142.05-3.38,177.5-8.12.71,4.95,1.08,27.94-.79,40.83a8.48,8.48,0,0,1-7.09,7.14c-24.09,3.72-103.13,8.21-187.21,8.21-105.28,0-218.47-7-241.53-31.47-4.23-14.22,1.22-37.1,9.63-40.9m0-5.47-2,.92c-11.73,5.3-17,31.32-12.37,46.88l.34,1.14.82.87c11.57,12.24,42,20.89,93,26.43,39.8,4.32,92.4,6.6,152.14,6.6,80.4,0,162.11-4.27,188-8.27a13.41,13.41,0,0,0,11.27-11.36c2-13.54,1.56-36.94.78-42.27l-.71-4.89-4.9.65c-36.67,4.91-106.08,8.08-176.83,8.08-54.7,0-105.42-1.87-146.7-5.41-48.47-4.15-82.38-10.37-100.78-18.48l-2-.89Z"/>
		<path class="cls-5" d="M1982.81,3545.11a8.47,8.47,0,0,1-7.09,7.14c-54.26,8.39-387.25,20.68-428.74-23.25a46,46,0,0,1-1.08-17.8c47.28,42.61,376.17,30.4,430.24,22.05a8.52,8.52,0,0,0,7.13-7.19c.5-3.43.58-11.25.69-17.06C1984.37,3517.78,1984.32,3534.72,1982.81,3545.11Z"/>
		<path class="cls-6" d="M1982.81,3545.11a8.47,8.47,0,0,1-7.09,7.14c-54.26,8.39-387.25,20.68-428.74-23.25a46,46,0,0,1-1.08-17.8c47.28,42.61,376.17,30.4,430.24,22.05a8.52,8.52,0,0,0,7.13-7.19c.5-3.43.58-11.25.69-17.06C1984.37,3517.78,1984.32,3534.72,1982.81,3545.11Z"/>
		<path class="cls-1" d="M2216.76,3416.32c-7.2,0-13.33-.18-17.2-.33a4.42,4.42,0,0,1-3.53-6.81c.82-1.27,1.84-2.77,3-4.46,5.83-8.64,16.67-24.72,15.48-31.88a4.42,4.42,0,0,1,3.63-5.08,17,17,0,0,1,2.78-.21c6.18,0,15,2.55,23.45,6.81a80.66,80.66,0,0,1,26.31,20.84c3.52,4.34,3.08,7.71,2.1,9.78C2269.11,3412.61,2250.8,3416.32,2216.76,3416.32Z"/>
		<path class="cls-2" d="M2220.89,3370.05c10.55,0,33.06,8.54,47.82,26.73,12,14.74-26.63,17-51.95,17-7.33,0-13.55-.19-17.1-.33a1.92,1.92,0,0,1-1.53-2.95c5.58-8.62,20.4-28.58,18.81-38.11a1.91,1.91,0,0,1,1.59-2.2,14.07,14.07,0,0,1,2.36-.18m0-5h0a18.6,18.6,0,0,0-3.19.25,6.92,6.92,0,0,0-5.69,8c1,6.17-10.26,22.92-15.08,30.07-1.16,1.72-2.16,3.2-3,4.49a6.91,6.91,0,0,0,5.53,10.66c3.89.16,10.05.34,17.3.34a255.59,255.59,0,0,0,33.74-1.85c14.29-2,21.85-5.34,24.5-10.92,1.3-2.72,1.93-7.08-2.41-12.42-16-19.71-39.86-28.58-51.7-28.58Z"/>
		<path class="cls-3" d="M2114.9,3524.72c-88,0-99-11.38-99.55-19.95-2.4-34.33-1-79,18.86-99.15-.73-1.57-1.28-3.63-.38-5.32a4.13,4.13,0,0,1,3.93-2.09,12.33,12.33,0,0,1,3.59.66c10.92,3.42,31.93,5.63,53.51,5.63a297.24,297.24,0,0,0,33.82-1.87c48.83-5.59,80.66-13.41,94.17-18.86a5.94,5.94,0,0,1,2.17-.4c3.28,0,6.63,2.4,8.36,4.63a8,8,0,0,1,1.78,4.15c22.19,15.67,53,32.19,73.53,43.18,13.37,7.16,20.45,11,22.61,12.85,5.17,4.47,41.15,16.43,51,19.08,3.74,1,9.83,2.41,16.28,3.89,18.68,4.29,33.31,7.78,37.55,10.39.85.52,1.7,1,2.51,1.48,3.66,2.11,7.11,4.1,7.64,7.51.32,2.1-.52,4.21-2.57,6.47-.86.94-2,2.23-36.71,6.68-22.9,2.93-52.46,6.15-83.23,9.07C2276.55,3517.22,2186.63,3524.72,2114.9,3524.72Z"/>
		<path class="cls-2" d="M2225,3385.87c3.47,0,8.39,4.35,7.58,7.52,34.74,24.82,91.29,51.7,97.07,56.68s42.62,17.09,52,19.6c12.19,3.28,47,10.22,53.17,14s12.29,5.88,7,11.64c-3.63,4-202.91,26.91-326.95,26.91-55.63,0-96.15-4.62-97.06-17.62-2.91-41.58,1-81.56,19.49-98.52,0,0-3.58-5.37.43-5.37a9.91,9.91,0,0,1,2.84.54c10.17,3.18,30.75,5.75,54.26,5.75a301.59,301.59,0,0,0,34.1-1.88c48.28-5.54,80.9-13.41,94.82-19a3.37,3.37,0,0,1,1.24-.22m0-5a8.27,8.27,0,0,0-3.11.59c-13.35,5.38-44.93,13.12-93.52,18.69a294.46,294.46,0,0,1-33.53,1.85c-24.28,0-44-2.77-52.77-5.52a14.52,14.52,0,0,0-4.33-.77,6.6,6.6,0,0,0-6.13,3.41,7.57,7.57,0,0,0-.31,5.92c-19.46,21.33-20.86,65.7-18.47,99.91.83,11.85,18.77,16.1,32.2,18.27,16.41,2.65,39.91,4,69.85,4,71.83,0,161.84-7.51,209.1-12,30.79-2.92,60.38-6.14,83.31-9.08,35.58-4.57,36.75-5.85,38.23-7.48,2.57-2.81,3.64-5.68,3.2-8.53-.72-4.6-4.86-7-8.86-9.3-.81-.46-1.64-.94-2.45-1.44-4.58-2.82-18.76-6.21-38.3-10.7-6.43-1.48-12.5-2.87-16.19-3.86-11.28-3-45.6-14.75-50-18.56-2.36-2-9.15-5.71-23.06-13.17-20.2-10.82-50.42-27-72.41-42.42a11.1,11.1,0,0,0-2.11-4.24c-2.16-2.78-6.19-5.59-10.33-5.59Z"/>
		<path class="cls-1" d="M2313.3,3463.54c-50,0-126.12-43.77-129.34-53.13-1.78-5.18,6.24-10.25,16.91-16.33l2.35-1.35c1.16-.68,2.33-1.41,3.52-2.15,5.3-3.31,11.3-7,18.05-7a18.25,18.25,0,0,1,5.28.78c11.53,3.51,40.3,17.2,65.5,31.17,49.95,27.71,48.53,34.85,48,37.54-.77,3.9-5.4,5.85-9.69,7.37a61.62,61.62,0,0,1-20.57,3.15Z"/>
		<path class="cls-2" d="M2224.79,3386a15.6,15.6,0,0,1,4.55.68c22,6.67,114.13,53.94,111.78,65.83-.47,2.38-3.85,4-8.07,5.49a59,59,0,0,1-19.75,3c-49.76,0-124.39-43.92-127-51.45-1.41-4.09,11.95-11.08,18.16-14.7s12.87-8.86,20.31-8.86m0-5c-7.47,0-13.79,3.95-19.37,7.43-1.21.75-2.35,1.46-3.46,2.11l-2.33,1.34c-10.15,5.78-20.63,11.76-18,19.31.52,1.51,1.61,4.66,16,13.81a309.33,309.33,0,0,0,32.41,17.63c18.46,8.73,53.83,23.38,83.32,23.38a64.31,64.31,0,0,0,21.42-3.29c3.56-1.27,10.19-3.62,11.3-9.24,1-5.2-3.42-10.82-15.37-19.4a364,364,0,0,0-33.87-20.81c-25.33-14.05-54.31-27.83-66-31.38a20.71,20.71,0,0,0-6-.89Z"/>
		<path class="cls-4" d="M2204.72,3520a1101.14,1101.14,0,0,1-191-16.74l-1.51-.27-.45-1.46c-1-3.12-.83-5.56.41-7.25a4.55,4.55,0,0,1,3.7-1.83,5.49,5.49,0,0,1,1.26.15c4,.51,86.92,6.72,182.14,6.72h0c104.52,0,183.81-7.14,235.68-21.23a6.83,6.83,0,0,1,1.76-.24c4.3,0,6.06,4.21,6.72,5.8l.62,1.48-1.09,1.18c-7.76,8.38-104.59,33.69-238.18,33.69Z"/>
		<path class="cls-2" d="M2436.69,3480.38c2.55,0,3.76,2.7,4.41,4.26-6.34,6.85-99.25,32.89-236.34,32.89a1098.4,1098.4,0,0,1-190.65-16.71c-1.28-4.12,0-5.84,1.72-5.84a3,3,0,0,1,.77.1c1.13.3,84.82,6.77,182.63,6.77,82.37,0,174.76-4.59,236.36-21.32a4.46,4.46,0,0,1,1.1-.15m0-5a9.2,9.2,0,0,0-2.41.33c-51.66,14-130.74,21.14-235.05,21.14-94.21,0-176.14-6.06-181.72-6.69a8,8,0,0,0-1.68-.18,7,7,0,0,0-5.71,2.85c-1.74,2.36-2,5.55-.79,9.47l.91,2.92,3,.53a1104.53,1104.53,0,0,0,191.52,16.78c74.48,0,132.52-7.59,168.08-14,30.55-5.47,66.09-14.23,71.93-20.55l2.18-2.35-1.23-3c-2-4.87-5.07-7.34-9-7.34Z"/>
		<path class="cls-5" d="M2210.07,3563c-80.29,0-161.83-4.26-187.6-8.24a10.91,10.91,0,0,1-9.18-9.25c-1.89-13.09-1.52-36.47-.79-41.55l.36-2.45,2.45.33c36.77,4.92,106.31,8.1,177.16,8.1,58.27,0,199.12-2.35,248.49-24.1l1-.45,1,.46c10.51,4.76,15.26,29.55,11,43.9l-.17.57-.4.43C2426.91,3558.77,2289.57,3563,2210.07,3563Z"/>
		<path class="cls-2" d="M2442,3488.09c8.41,3.8,13.86,26.68,9.63,40.9-23.07,24.43-136.25,31.47-241.53,31.47-84.08,0-163.12-4.49-187.22-8.21a8.45,8.45,0,0,1-7.08-7.14c-1.87-12.89-1.51-35.88-.79-40.83,35.45,4.74,104.36,8.12,177.49,8.12,100.4,0,208.77-6.37,249.5-24.31m0-5.47-2.05.89c-18.4,8.11-52.3,14.33-100.78,18.48-41.27,3.54-92,5.41-146.7,5.41-70.74,0-140.16-3.17-176.83-8.08l-4.9-.65-.71,4.89c-.77,5.33-1.17,28.73.79,42.27a13.39,13.39,0,0,0,11.27,11.36c25.86,4,107.57,8.27,188,8.27,59.73,0,112.34-2.28,152.13-6.6,51-5.54,81.47-14.19,93-26.43l.82-.87.34-1.14c4.63-15.56-.64-41.58-12.36-46.88l-2-.92Z"/>
		<path class="cls-5" d="M2451.6,3529c-41.49,43.93-374.48,31.64-428.75,23.25a8.44,8.44,0,0,1-7.08-7.14c-1.49-10.29-1.56-27-1.16-35.87.11,5.79.2,13.44.7,16.82a8.51,8.51,0,0,0,7.12,7.19c54.07,8.35,383,20.56,430.24-22.06A45.86,45.86,0,0,1,2451.6,3529Z"/>
		<path class="cls-6" d="M2451.6,3529c-41.49,43.93-374.48,31.64-428.75,23.25a8.44,8.44,0,0,1-7.08-7.14c-1.49-10.29-1.56-27-1.16-35.87.11,5.79.2,13.44.7,16.82a8.51,8.51,0,0,0,7.12,7.19c54.07,8.35,383,20.56,430.24-22.06A45.86,45.86,0,0,1,2451.6,3529Z"/>
	</g>
</svg>