<svg
	xmlns="http://www.w3.org/2000/svg" viewBox="0 0 4000 4000">
	<defs>
		<style>.cls-1{fill:#ee3522;}.cls-1,.cls-2{stroke:#333;stroke-linecap:round;stroke-linejoin:round;stroke-width:5px;}.cls-2{fill:#fff;}</style>
	</defs>
	<title>tail</title>
	<g id="tail">
		<path class="cls-1" d="M2598.19,2842.77a40.71,40.71,0,0,1-4.61,19,168.28,168.28,0,0,0-37.95,10.64,69.15,69.15,0,0,0,.92-12c-.13-14.19-4.44-27.11-11.46-36.94a209.39,209.39,0,0,1,40.32-10.41,46,46,0,0,1,3.56,4.13A41.88,41.88,0,0,1,2598.19,2842.77Z"/>
		<path class="cls-1" d="M2805.41,2992c0,1.14,0,2.27,0,3.41,0,.42,0,.85,0,1.28a201.41,201.41,0,0,1-2.8,29c-.58,3.41-1.25,6.81-2,10.13-.2.9-.41,1.79-.63,2.68-.1.46-.22.91-.34,1.35-.15.65-.32,1.29-.49,1.93-.4,1.52-.82,3-1.26,4.51-.34,1.14-.69,2.28-1,3.41s-.79,2.45-1.21,3.66h0a142.18,142.18,0,0,1-14,29.6,116.61,116.61,0,0,1-10.19,13.94c-.19.25-.4.51-.62.75l-.34.38c-.59.68-1.17,1.34-1.78,2-1.06,1.16-2.13,2.28-3.23,3.38l-2,1.94c-.39.36-.77.73-1.16,1.08-.65.61-1.31,1.22-2,1.81l-.06,0c-.69.62-1.38,1.2-2.08,1.78s-1.3,1.08-2,1.6l-.78.62c-.48.37-1,.75-1.46,1.11q-1.79,1.35-3.62,2.59a97.14,97.14,0,0,1-22.16,11.32,101.38,101.38,0,0,1-15.35,4.18,71.06,71.06,0,0,1-7.93-2.47c-17.93-6.8-30.86-20.48-33-37.57a39.61,39.61,0,0,1,.09-10.77c9.67,2.89,20.19,4.33,30.59,2.61,1.13-.18,2.26-.4,3.39-.67l.92-.22.39-.11c.47-.11.95-.24,1.42-.39s1-.31,1.58-.49.85-.29,1.3-.44q1.77-.64,3.45-1.41c.95-.41,1.87-.87,2.78-1.34.29-.15.59-.31.86-.48a.44.44,0,0,0,.18-.09c.25-.13.49-.26.72-.4a48.74,48.74,0,0,0,4.3-2.79c8-5.74,13.93-13.47,18.35-21.51l.66-1.22c.75-1.44,1.47-2.89,2.13-4.32s1.34-3,1.94-4.48c.45-1.11.87-2.21,1.27-3.3q.9-2.46,1.64-4.8c.1-.34.21-.67.31-1,.3-.94.57-1.89.83-2.86a139.23,139.23,0,0,0,4.5-24.64c.21-2.22.38-4.46.48-6.69,0-.64.07-1.29.09-1.94a3.93,3.93,0,0,0,0-.48c0-.77.06-1.56.06-2.34.05-2.11,0-4.21,0-6.29,0-1.08,0-2.16-.1-3.24,0-.81-.07-1.61-.13-2.4,0-.21,0-.41,0-.62a125.38,125.38,0,0,0-2.52-18.57q-.84-3.87-1.94-7.54a2.58,2.58,0,0,0-.08-.26c-.2-.73-.42-1.46-.66-2.16,0-.12-.08-.23-.11-.35-.21-.69-.45-1.35-.69-2-.07-.22-.15-.43-.23-.65-.23-.68-.48-1.34-.72-2-.3-.81-.61-1.6-.94-2.39s-.55-1.34-.83-2-.52-1.24-.79-1.84c-.19-.43-.38-.85-.59-1.27-.64-1.36-1.3-2.72-2-4s-1.44-2.75-2.19-4.07a124.4,124.4,0,0,0-14.48-20.36c-.76-.87-1.51-1.72-2.25-2.54s-1.25-1.35-1.88-2c-2.08-2.18-4.16-4.24-6.21-6.15-.69-.65-1.38-1.27-2.05-1.87s-1.36-1.21-2-1.78-1.34-1.17-2-1.7-1.41-1.17-2.1-1.73a160.11,160.11,0,0,0-21.17-14.38c-1.3-.75-2.62-1.47-3.94-2.18-1-.55-2-1.08-3.06-1.59l-.92-.47-2-1c-2.32-1.13-4.67-2.2-7-3.21-.95-.41-1.9-.81-2.85-1.19l-.84-.34c-1-.41-2-.78-3-1.16l-.17-.07c-.92-.35-1.85-.68-2.77-1l-.48-.18c-1.09-.39-2.21-.77-3.3-1.12a144.18,144.18,0,0,0-22.53-5.46c-3.09-.48-6.2-.84-9.31-1.07-.87-.07-1.74-.14-2.62-.19-3.1-.19-6.19-.27-9.3-.22h-1.44l-2.19.07c-1.45,0-2.91.13-4.36.23l-2.19.17-2.39.22-2.38.26c-1.6.2-3.2.42-4.78.65a40.71,40.71,0,0,0,4.61-19,41.88,41.88,0,0,0-9.22-25.52,46,46,0,0,0-3.56-4.13c1.3-.21,2.6-.39,3.9-.58,1.12-.14,2.23-.28,3.33-.4h0l2.38-.25c1.3-.14,2.58-.26,3.88-.36l1.56-.13,1.68-.12h0c1.13-.07,2.25-.14,3.37-.18l.38,0c1.33-.06,2.67-.1,4-.13s2.77-.05,4.16-.05h.09c1.16,0,2.32,0,3.46,0l2.21.05,2.08.08,2.61.13q8.77.49,17.48,1.83a191.49,191.49,0,0,1,24.92,5.62q5.28,1.55,10.51,3.41h0c1,.36,2,.72,3.05,1.11s2.11.8,3.15,1.21l1.57.63c.52.21,1,.41,1.56.64q1.43.57,2.82,1.17,2.05.87,4.08,1.8l2.59,1.2c.59.26,1.17.54,1.74.82l2.24,1.09a212.57,212.57,0,0,1,29,17.32c.87.61,1.73,1.23,2.58,1.85q1.77,1.29,3.49,2.62c.24.17.47.35.7.54,1.14.86,2.25,1.73,3.36,2.63.56.44,1.1.9,1.65,1.35.7.57,1.4,1.16,2.09,1.74,1,.81,1.9,1.63,2.84,2.45l.13.1,2.51,2.25c1.11,1,2.21,2,3.28,3.07.84.78,1.66,1.57,2.46,2.36s1.68,1.68,2.51,2.53a178.69,178.69,0,0,1,19.08,23c.64.91,1.27,1.82,1.88,2.73.41.6.8,1.21,1.19,1.84,1,1.52,2,3,2.89,4.58.27.46.56.93.83,1.4.55.92,1.09,1.84,1.61,2.78q1.3,2.3,2.54,4.64c.53,1,1.05,2,1.56,3.07s1.15,2.34,1.7,3.52c.31.66.61,1.33.91,2q1.29,2.82,2.44,5.71h0a155.81,155.81,0,0,1,7.9,25.53c.55,2.6,1.06,5.24,1.49,7.92.22,1.28.42,2.57.61,3.87l.24,1.74c0,.16,0,.32.05.47.09.69.18,1.39.26,2.08s.19,1.65.27,2.5.16,1.47.21,2.21q.59,6.33.73,12.82c0,.65,0,1.3,0,1.93C2805.41,2989.92,2805.41,2991,2805.41,2992Z"/>
		<path class="cls-2" d="M2633.23,2836a41.92,41.92,0,0,1-8,24.65,129.43,129.43,0,0,0-13.36-.4c-2.91.07-5.83.23-8.74.47l-2.39.22-2.38.26c-1.6.2-3.2.42-4.78.65a40.71,40.71,0,0,0,4.61-19,41.88,41.88,0,0,0-9.22-25.52,46,46,0,0,0-3.56-4.13c1.3-.21,2.6-.39,3.9-.58,1.12-.14,2.23-.28,3.33-.4h0l2.38-.25c1.3-.14,2.58-.26,3.88-.36l1.56-.13,1.68-.12h0c1.13-.07,2.25-.14,3.37-.18l.38,0c1.33-.06,2.67-.1,4-.13s2.77-.05,4.16-.05h.09c1.16,0,2.32,0,3.46,0l2.21.05,2.08.08,2.61.13a44.54,44.54,0,0,1,5.11,8.67A40.45,40.45,0,0,1,2633.23,2836Z"/>
		<path class="cls-2" d="M2703.53,2847.05a40.64,40.64,0,0,1-5.07,19.91,50.34,50.34,0,0,1-11,13.69c-1.3-.75-2.62-1.47-3.94-2.18a164.06,164.06,0,0,0-26.43-11.33,48.88,48.88,0,0,0,9.53-13,40.72,40.72,0,0,0,4.33-18.5,39.84,39.84,0,0,0-1.78-11.41,41.51,41.51,0,0,0-2.16-5.58q5.28,1.55,10.51,3.41h0a209.1,209.1,0,0,1,22.8,9.67,40,40,0,0,1,3.21,15.33Z"/>
		<path class="cls-2" d="M2757,2872.53a39.73,39.73,0,0,1-1.83,9.95c-4,12.69-14.25,23.51-28,30.32a142.34,142.34,0,0,0-16.42-16,57.12,57.12,0,0,0,8.55-7.72c7.45-8.27,11.78-18.36,11.69-29.23,0-.62,0-1.25-.07-1.87a40,40,0,0,0-1.52-8.9q5.19,3.66,10.13,7.64c.56.44,1.1.9,1.65,1.35A196.13,196.13,0,0,1,2757,2872.53Z"/>
		<path class="cls-2" d="M2793.59,2927.78h0a48.36,48.36,0,0,1-5.07,7.32c-8.52,10.22-21.65,17.86-37.1,21.1a107.42,107.42,0,0,0-7.62-19c-.7-1.38-1.44-2.75-2.19-4.07,13.75-5.5,24.65-14.77,30.44-26a41.48,41.48,0,0,0,4-11.59q4.55,6.49,8.4,13.33A157.62,157.62,0,0,1,2793.59,2927.78Z"/>
		<path class="cls-2" d="M2805.35,2996.73l-.28.17a76,76,0,0,1-38,10.15,79.26,79.26,0,0,1-11.62-.73,153.46,153.46,0,0,0,.55-21c0-1-.09-2-.16-3,18.06-1.15,34-8.17,44.7-18.59.83-.82,1.63-1.63,2.4-2.49.22,1.28.42,2.57.61,3.87A193.1,193.1,0,0,1,2805.35,2996.73Z"/>
		<path class="cls-2" d="M2802.55,3025.71a177.09,177.09,0,0,1-5.77,24c-.39,1.23-.79,2.45-1.21,3.66-1.79.63-3.63,1.18-5.5,1.69a79.94,79.94,0,0,1-19.91,2.65,79,79,0,0,1-22.81-3.08c-1.75-.49-3.47-1.06-5.14-1.69l.66-1.22a102.7,102.7,0,0,0,7-16.9c.1-.34.21-.67.31-1,.3-.94.57-1.89.83-2.86a80.28,80.28,0,0,0,19,2.06A77.06,77.06,0,0,0,2802.55,3025.71Z"/>
		<path class="cls-2" d="M2781.58,3083a115.81,115.81,0,0,1-18.13,22.39,100.5,100.5,0,0,1-13.09,10.62,70.6,70.6,0,0,1-21.66-6.11c-12.38-5.82-21.83-15.13-26.13-26.59a51.57,51.57,0,0,0,9-2.32,49.31,49.31,0,0,0,12.29-6.51,69,69,0,0,0,14,6.52,78.61,78.61,0,0,0,26.05,4.11l2.41-.05A80.29,80.29,0,0,0,2781.58,3083Z"/>
		<path class="cls-2" d="M2556.55,2860.47a69.15,69.15,0,0,1-.92,12c-10.54,7.1-20.05,14.51-30,20.62,8.56-24.24-2-52.37-18.15-57,11.23-6.15,23.6-10.88,37.65-12.54C2552.11,2833.36,2556.42,2846.28,2556.55,2860.47Z"/>
		<path class="cls-2" d="M2712.85,3131.49c-1.6.31-3.18.57-4.77.79l-1.95.26-1.09.12c-1.52.18-3,.31-4.54.4-.62.05-1.23.08-1.86.12-1.56.06-3.1.1-4.65.11h0c-.21,0-.4,0-.61,0-4.13,0-21.9-.29-27.83-2.31-13.44-3.5-24.8-20.37-26.05-30.17-1.39-10.89,1.75-24.17,8.31-33.32,1.87,1.07,16.4,11.88,24.2,13.17a39.61,39.61,0,0,0-.09,10.77c2.17,17.09,15.1,30.77,33,37.57A71.06,71.06,0,0,0,2712.85,3131.49Z"/>
	</g>
</svg>